<?xml version='1.0' encoding='utf-8'?>
<svg xmlns="http://www.w3.org/2000/svg" width="502.01102mm" height="301.78345mm" viewBox="0 0 502.01102 301.78345" version="1.1" id="svg5" xml:space="preserve"><defs id="defs2" /><g id="layer1"><path style="fill:#000000;stroke-width:1" d="m 472.17252999999994 301.2970000000005 c -0.1132,-0.295 0.067,-0.952 0.4006,-1.461 0.6778,-1.035 0.5993,-1.034 11.0283,-0.07 4.1885,0.387 6.7973,0.921 4.8004,0.984 -0.489,0.01 -4.0892,0.264 -8.0007,0.553 -8.6685,0.64 -7.9807,0.64 -8.2286,0 z m -28.9299,-1.272 c -19.0167,-1.552 -53.0243,-3.728 -79.8285,-5.108 -15.6351,-0.804 -16.179,-0.858 -16.179,-1.595 0,-0.343 0.3035,-0.899 0.6744,-1.234 0.6071,-0.55 1.0952,-0.575 4.8893,-0.252 2.3182,0.196 5.655,0.451 7.4151,0.565 1.7602,0.115 5.2805,0.365 7.8228,0.555 2.5425,0.192 7.8228,0.587 11.7343,0.879 14.6321,1.095 32.218,2.12 55.2932,3.225 17.3725,0.831 18.6407,0.938 18.7639,1.583 0.1377,0.72 -1.2072,2.135 -1.9764,2.079 -0.3346,-0.02 -4.2086,-0.338 -8.6091,-0.697 z m -126.2321,-1.248 c -21.01,-0.483 -36.2107,-0.904 -40.7143,-1.124 l -5.3338,-0.261 3.7337,-0.232 c 2.0534,-0.129 16.2145,-0.352 31.4691,-0.496 27.8261,-0.263 33.7619,-0.104 36.3812,0.975 l 0.9551,0.393 -1.4224,0.285 c -1.6287,0.326 -17.9156,0.625 -25.0686,0.46 z m -1.0667,-6.92 c -24.7839,-1.964 -56.3757,-3.755 -81.07307,-4.596 -49.6591,-1.69 -91.18697,-3.91 -120.0095,-6.416 -20.4032,-1.774 -32.13194,-3.061 -32.69589,-3.587 -0.43645,-0.408 3.28401,-0.395 11.18314,0.04 3.42251,0.188 13.10319,0.664 21.51275,1.057 15.90157,0.744 18.26976,0.872 43.2034,2.338 16.24599,0.954 73.3164,4.899 82.0033,5.667 1.6823,0.15 2.2758,0.07 2.6214,-0.345 0.5382,-0.648 2.8823,-0.694 9.46507,-0.183 14.4041,1.119 32.9802,2.281 51.1629,3.201 11.345,0.575 22.7472,1.154 25.3386,1.288 2.5913,0.134 4.7115,0.306 4.7115,0.384 0,0.08 -0.2442,0.612 -0.5425,1.189 -0.6721,1.3 0.011,1.301 -16.8811,-0.04 z m 145.6114,0.539 c -13.7512,-0.499 -26.1165,-0.978 -45.6925,-1.77 -7.1383,-0.289 -19.6993,-0.767 -27.9133,-1.062 -32.1885,-1.158 -67.5571,-2.583 -70.4055,-2.837 -1.1735,-0.105 -5.8938,-0.354 -10.4898,-0.552 -13.3951,-0.582 -46.7807,-2.242 -56.7155,-2.82 -3.3247,-0.195 -10.28527,-0.599 -15.46787,-0.899 -26.1535,-1.515 -28.2557,-1.651 -49.9595,-3.225 -8.4632,-0.613 -30.12124,-2.253 -31.46917,-2.382 -1.38382,-0.132 -1.04515,-0.804 0.3556,-0.705 2.39309,0.169 24.11537,1.151 37.33627,1.688 26.6666,1.083 30.0928,1.232 32.7137,1.419 1.4667,0.105 8.9074,0.434 16.5346,0.73 7.62727,0.296 19.14817,0.772 25.60207,1.057 6.4538,0.286 19.1748,0.84 28.2688,1.232 9.0941,0.392 21.3351,0.954 27.2022,1.249 17.6322,0.885 25.1236,1.226 35.2027,1.602 5.2805,0.196 10.801,0.439 12.2677,0.539 1.4668,0.101 6.6672,0.341 11.5564,0.536 7.7165,0.307 20.7584,0.916 53.3376,2.491 4.3025,0.207 10.6231,0.533 14.0455,0.722 3.4225,0.19 10.7031,0.585 16.1791,0.877 5.476,0.293 13.3966,0.771 17.6014,1.065 4.2047,0.292 9.3251,0.632 11.3786,0.755 2.0536,0.122 3.9737,0.356 4.2671,0.519 0.7803,0.434 -21.3208,0.293 -35.7362,-0.229 z m -2.1335,-11.545 c -6.6494,-0.161 -20.3305,-0.545 -30.4024,-0.852 -10.0719,-0.306 -23.8329,-0.722 -30.5802,-0.924 -6.7471,-0.203 -17.388,-0.528 -23.6463,-0.725 -24.1503,-0.756 -46.002,-1.428 -57.6045,-1.772 -16.7952,-0.497 -53.094,-1.703 -58.6713,-1.95 -8.0198,-0.354 -40.95147,-1.407 -99.38555,-3.18 -15.93907,-0.484 -33.94051,-1.05 -40.00315,-1.257 -6.06274,-0.208 -20.70387,-0.694 -32.53593,-1.079 -33.80474,-1.1 -41.62364,-1.38 -49.4261,-1.765 -4.00924,-0.198 -10.56971,-0.521 -14.57894,-0.717 -17.96586,-0.879 -22.24684,-1.16 -22.57957,-1.484 -0.3428,-0.333 10.61385,-0.249 35.31526,0.272 l 9.71314,0.205 -1.07195,-1.481 c -0.58956,-0.813 -1.24694,-2.01 -1.46073,-2.657 -0.32537,-0.986 -0.64186,-1.242 -1.9394,-1.569 -2.01379,-0.507 -3.39832,-2.094 -3.3965,-3.892 0,-1.54 1.06823,-3.457 2.10763,-3.787 0.50518,-0.16 0.73409,-0.533 0.73046,-1.187 -0.0111,-1.988 -1.11177,-5.523 -2.3956,-7.695 -0.73299,-1.24 -1.60537,-2.751 -1.9385,-3.357 -0.57443,-1.047 -0.71716,-1.103 -2.76461,-1.103 -1.91199,0 -2.19341,0.09 -2.46153,0.8 -0.16661,0.44 -1.12507,4.353 -2.13,8.696 -1.00493,4.343 -1.92197,8.143 -2.03778,8.445 -0.30269,0.789 -3.97981,0.78 -4.283,-0.01 -0.25713,-0.67 0.70658,-9.325 1.69457,-15.218 0.38917,-2.322 0.65134,-4.278 0.5825,-4.347 -0.0685,-0.07 -0.56042,1.751 -1.09232,4.044 -0.5319,2.293 -1.64397,6.81 -2.4714,10.036 l -1.50447,5.867 -1.4194,0.105 c -0.78731,0.06 -1.70868,-0.107 -2.06883,-0.371 -0.74689,-0.546 -0.76362,-0.367 1.37465,-14.787 0.67674,-4.563 1.23041,-8.5 1.23041,-8.746 0,-0.248 -0.63894,-0.701 -1.4199,-1.008 -0.88821,-0.349 -1.54641,-0.89 -1.75767,-1.446 -0.20129,-0.53 -0.38192,-13.874 -0.44693,-33.01 l -0.10916,-32.122 -3.86873,0.09 -3.86872,0.09 0.21066,-1.299 c 0.4054,-2.497 4.1949,-7.183 7.83583,-9.688 4.34649,-2.991 10.41699,-5.394 21.05927,-8.337 3.89312,-1.077 12.91884,-3.58 20.05716,-5.562 7.13833,-1.981 28.50009,-7.84 47.47037,-13.017 37.45404,-10.223 39.03733,-10.683 38.83937,-11.276 -0.0736,-0.22 -0.76131,-0.526 -1.52916,-0.679 -2.00251,-0.399 -2.98133,-0.993 -3.59467,-2.179 -1.15763,-2.239 0.43987,-5.048 4.36162,-7.671 4.3223,-2.891 5.69372,-3.35 53.48563,-17.874 14.2381,-4.329 16.8019,-5.002 21.424,-5.628 l 3.1113,-0.421 v -5.131 c 0,-4.232 0.094,-5.166 0.5334,-5.335 0.3412,-0.131 0.5333,-0.679 0.5333,-1.521 0,-1.67 0.6813,-2.607 1.8935,-2.607 1.3789,0 2.018,0.699 2.018,2.208 0,1.064 0.1727,1.4 0.8889,1.727 0.8851,0.403 0.889,0.426 0.889,5.261 v 4.857 l 1.6497,-0.226 c 0.9074,-0.125 5.1263,-0.227 9.3752,-0.227 h 7.7255 l 0.1775,-2.482 c 0.2964,-4.141 1.98047,-5.669 7.87827,-7.149 2.9109,-0.73 3.0628,-0.817 3.0628,-1.739 0,-1.564 1.418,-3.322 3.1164,-3.863 1.3328,-0.425 1.6401,-0.405 2.834,0.178 1.0852,0.53 1.4402,0.974 1.8724,2.342 0.2934,0.927 0.6534,1.687 0.8001,1.688 0.1467,0 0.2667,-2.251 0.2667,-5.004 v -5.005 l 1.0393,-1.039 c 0.7363,-0.736 1.3846,-1.038 2.2225,-1.034 2.9338,0.01 4.2041,1.867 4.2049,6.141 6e-4,2.703 0.018,2.759 0.7492,2.367 2.0703,-1.108 4.8137,1.025 4.451,3.461 -0.1666,1.119 -0.1463,1.135 2.2262,1.856 2.6883,0.816 4.4202,1.868 5.5202,3.351 0.7008,0.946 0.7503,1.522 0.8543,9.957 0.06,4.944 0.2599,9.105 0.4445,9.291 0.2086,0.211 0.3371,-0.991 0.3422,-3.2 0.013,-5.973 0.6121,-11.981 1.4047,-14.099 1.5243,-4.074 4.5967,-6.302 9.9871,-7.244 1.6212,-0.282 2.9909,-0.557 3.0435,-0.609 0.052,-0.05 -0.026,-0.993 -0.1747,-2.089 -0.4186,-3.084 0.4345,-4.533 2.6846,-4.555 1.7557,-0.02 2.7313,1.439 2.4926,3.722 -0.1022,0.978 -0.2906,2.044 -0.4185,2.368 -0.1872,0.475 0.168,0.706 1.8224,1.187 5.1375,1.493 8.2373,4.202 9.7567,8.525 0.7576,2.156 0.963,7.402 0.4812,12.292 l -0.2357,2.393 1.2071,0.398 c 1.9694,0.65 3.7105,2.344 4.5912,4.469 0.7791,1.88 0.8806,1.972 2.9384,2.638 2.1119,0.683 2.1365,0.683 2.6952,0 0.3672,-0.452 3.0435,-1.47 7.6738,-2.917 l 7.1099,-2.224 -0.093,-3.894 c -0.051,-2.142 -0.1746,-5.335 -0.275,-7.095 -0.1008,-1.761 -0.4212,-10.79 -0.713,-20.065 l -0.5306,-16.863 -1.7708,-1.873 c -1.3098,-1.384 -1.7708,-2.147 -1.7708,-2.933 0,-1.231 1.2483,-2.862 3.0375,-3.968 0.6762,-0.418 1.2296,-0.877 1.2296,-1.02 0,-0.699 -5.6535,-5.896 -8.4405,-7.76 -5.7827,-3.868 -10.6964,-5.418 -17.2112,-5.428 -7.97,-0.01 -13.7975,1.814 -27.3617,8.58 -12.6613,6.314 -14.179,6.848 -19.5257,6.867 -3.8829,0.01 -4.1854,-0.04 -5.9966,-1.042 -1.0491,-0.581 -2.2557,-1.569 -2.6813,-2.196 l -0.7741,-1.139 -2.7926,1.919 c -12.3294,8.474 -26.13117,10.387 -31.30757,4.34 l -1.2184,-1.424 -2.7722,1.772 c -3.3071,2.114 -5.4303,3.084 -8.0221,3.663 -2.4862,0.557 -6.4788,0.307 -8.1686,-0.512 -1.5612,-0.756 -3.4047,-2.528 -3.8691,-3.72 -0.3273,-0.84 -0.3325,-0.838 -2.0101,0.727 -3.5966,3.352 -7.8886,5.661 -11.8385,6.367 -4.6757,0.835 -9.7281,-0.748 -13.5508,-4.248 -1.97014,-1.804 -4.56139,-5.266 -4.56139,-6.096 0,-0.229 1.08013,0.577 2.40024,1.789 4.47265,4.109 7.29145,5.608 11.15715,5.934 4.1414,0.349 9.6789,-1.845 16.9271,-6.708 4.6771,-3.139 5.2159,-3.342 3.6722,-1.394 -1.1406,1.441 -1.1858,1.596 -0.7085,2.433 0.2806,0.492 1.3812,1.385 2.446,1.985 3.9867,2.243 8.5042,1.158 18.1452,-4.358 6.3681,-3.644 8.5462,-4.772 8.7753,-4.542 0.09,0.09 -1.4459,1.495 -3.4126,3.123 -1.9665,1.627 -3.5755,3.058 -3.5755,3.177 0,0.275 2.5889,1.539 4.4449,2.169 2.1992,0.747 8.6356,0.555 12.0422,-0.358 3.55547,-0.953 7.87887,-2.803 12.84857,-5.499 8.1535,-4.423 10.3217,-5.557 10.6406,-5.563 0.5596,-0.01 -1.2438,1.702 -3.231,3.071 -1.7971,1.237 -1.8573,1.327 -1.1913,1.794 3.234,2.266 8.605,2.126 14.7611,-0.384 1.1735,-0.479 6.6261,-3.095 12.1172,-5.816 14.3261,-7.097 19.5483,-8.724 28.0638,-8.74 4.401,0 5.3412,0.101 8.1099,0.944 5.6567,1.722 9.3075,3.98 13.4446,8.313 1.4896,1.56 3.309,3.911 4.043,5.223 1.0338,1.849 1.465,2.33 1.914,2.135 1.9632,-0.85 6.649,-2.005 8.8543,-2.179 3.0296,-0.241 2.9878,0.105 0.6035,-4.985 -2.1102,-4.505 -4.7108,-8.141 -8.1488,-11.394 -14.7985,-14.004 -40.2612,-18.758 -67.7569,-12.653 -5.2399,1.164 -14.4191,3.927 -19.1832,5.776 -2.0435,0.793 -3.776,1.38 -3.8501,1.307 -0.3961,-0.396 7.7409,-4.62 12.6111,-6.545 16.7328,-6.616 34.8959,-8.452 51.3143,-5.185 20.0489,3.989 34.184,15.506 38.302,31.207 l 0.5985,2.282 2.4289,0.225 c 3.3091,0.308 8.2809,1.965 10.6872,3.561 1.9526,1.297 3.4544,3.456 3.4544,4.967 0,0.926 -0.871,2.411 -2.1018,3.581 -1.0929,1.039 -1.0986,1.064 -1.1355,4.978 -0.02,2.163 -0.1404,6.054 -0.2667,8.645 -0.1263,2.593 -0.1496,4.664 -0.051,4.605 1.5447,-0.935 4.352,-1.885 7.0844,-2.398 12.4562,-2.338 11.6404,-2.234 13.9794,-1.774 6.2262,1.224 10.8894,6.002 12.0734,12.369 1.1673,6.277 -2.3663,13.469 -7.8899,16.06 -1.7821,0.837 -2.3531,0.917 -6.4014,0.907 -3.3495,0 -4.8391,-0.162 -6.0449,-0.628 -1.1547,-0.445 -2.9671,-0.655 -6.511,-0.754 -4.754,-0.132 -4.9415,-0.109 -5.8672,0.707 l -0.9562,0.842 4.0892,0.03 c 2.2491,0.02 5.8494,0.172 8.0007,0.348 2.1512,0.174 6.8716,0.508 10.4896,0.739 3.6181,0.233 6.9384,0.558 7.3785,0.722 0.6369,0.239 0.799,0.574 0.7951,1.642 -0.01,2.362 -0.2976,2.893 -1.6384,3.012 l -1.2149,0.109 0.773,1.066 c 0.4252,0.587 1.8806,2.027 3.2343,3.2 4.7541,4.121 9.3159,10.173 12.0223,15.947 4.747,10.13 5.4879,22.873 1.937,33.313 -0.4868,1.431 -0.8851,2.654 -0.8851,2.717 0,0.06 4.7817,0.116 10.626,0.116 h 10.6261 l 0.2144,0.801 c 0.1179,0.439 0.2166,1.889 0.2193,3.22 v 2.421 l 2.9569,3.625 c 1.6263,1.993 4.6133,5.704 6.6379,8.246 7.448,9.353 8.3369,10.295 11.0763,11.734 l 2.5324,1.331 -0.2165,1.823 c -0.119,1.003 -0.3172,2.479 -0.4403,3.28 l -0.2236,1.456 2.7598,0.233 c 1.5179,0.129 5.0443,0.233 7.8364,0.233 7.1349,0 6.5505,-1.191 6.5505,13.357 v 11.482 l -0.8617,0.679 c -0.6856,0.539 -1.9405,0.767 -6.1338,1.117 -2.8997,0.24 -7.7381,0.668 -10.7519,0.947 -3.0139,0.28 -5.7989,0.509 -6.1889,0.509 -0.687,0 -0.7026,0.171 -0.4962,5.454 0.1171,3 0.4136,9.161 0.659,13.693 0.4253,7.858 0.2618,11.971 -0.554,13.938 -0.166,0.4 0.687,1.209 3.155,2.987 3.6214,2.609 7.6603,6.537 7.6603,7.448 0,0.306 -0.36,0.789 -0.8001,1.074 -1.1069,0.716 -7.1616,2.467 -11.6454,3.371 -9.2674,1.865 -9.8031,1.889 -34.7087,1.622 l -23.1523,-0.248 -1.9164,1.972 -1.9163,1.97 4.6226,0.209 c 2.5425,0.115 13.3433,0.371 24.0019,0.57 26.4629,0.492 39.7768,0.941 52.982,1.783 18.1002,1.155 31.2534,2.73 31.0348,3.718 -0.043,0.196 -0.9233,0.469 -1.9557,0.607 -3.1474,0.422 -27.8169,0.591 -40.6356,0.279 z m -90.1646,-8.089 c -0.5022,-0.342 -1.5209,-1.3 -2.2637,-2.132 l -1.3507,-1.511 h -14.7154 -14.7153 v -0.912 c 0,-0.502 0.1656,-1.222 0.3681,-1.601 0.344,-0.642 0.8082,-0.687 7.0868,-0.687 h 6.7188 l -0.3308,-1.153 c -0.4875,-1.7 -0.3922,-5.086 0.2229,-7.914 1.84,-8.462 2.3484,-11.576 2.6453,-16.2 0.1827,-2.848 0.2605,-6.368 0.1728,-7.823 -0.088,-1.456 -0.2583,-4.686 -0.3791,-7.18 l -0.2196,-4.533 h -4.2692 c -3.9223,0 -4.2493,0.05 -4.024,0.621 0.6051,1.537 1.9668,9.076 2.3495,13.01 0.4931,5.07 0.2439,12.813 -0.5293,16.456 -1.1109,5.234 -3.7999,10.804 -5.215,10.804 -0.6202,0 -0.3308,-3.489 0.8895,-10.724 2.0149,-11.948 2.5324,-18.172 2.1285,-25.602 l -0.2482,-4.565 h -3.1881 c -2.8987,0 -3.1645,0.06 -2.9274,0.621 1.7109,4.084 3.2495,11.192 3.6643,16.928 0.9272,12.824 -2.7205,25.506 -9.0815,31.573 l -2.1042,2.007 7.6686,0.263 c 4.2178,0.144 12.6291,0.375 18.6918,0.511 6.0627,0.137 11.6632,0.274 12.4454,0.306 l 1.4224,0.06 z m -59.8175,-1.87 c -1.3098,-1.03 -4.0622,-4.795 -5.3243,-7.282 -0.5961,-1.174 -1.6121,-3.647 -2.2578,-5.492 -0.8695,-2.487 -1.2377,-3.179 -1.4195,-2.668 -2.2973,6.459 -5.9647,11.954 -9.8705,14.787 l -1.3744,0.998 5.8192,0.107 c 3.2006,0.06 7.9609,0.143 10.5786,0.187 l 4.7594,0.08 z m 15.2159,-0.69 c 2.8033,-1.306 4.7554,-3.051 6.7212,-6.009 2.0279,-3.05 3.652,-7.087 4.5955,-11.426 0.605,-2.782 0.7369,-4.646 0.7419,-10.495 0.01,-7.982 -0.4038,-10.837 -2.4867,-17.284 l -1.2186,-3.772 -2.1907,-0.228 c -1.2048,-0.126 -2.255,-0.165 -2.3337,-0.09 -0.079,0.08 0.2479,0.919 0.7258,1.868 4.1593,8.255 5.4493,21.185 3.0812,30.881 -2.6096,10.686 -10.3553,16.781 -17.2366,13.563 -3.1356,-1.465 -7.7828,-7.004 -10.1855,-12.139 -1.1054,-2.362 -2.0075,-3.133 -1.5608,-1.335 0.9873,3.975 4.07,9.887 6.5982,12.654 4.5158,4.94 9.5359,6.236 14.7488,3.808 z m 58.1894,0.696 c 4.1008,-1.287 3.7686,-1.412 -3.7673,-1.418 -4.0907,0 -6.9509,0.127 -6.7561,0.307 0.8105,0.75 4.4083,1.786 6.2564,1.803 1.1039,0.01 3.0241,-0.301 4.267,-0.692 z m -99.899,-0.401 c 5.7485,-1.219 10.2882,-5.883 13.6535,-14.026 l 1.5093,-3.653 -2.6549,-0.249 c -1.4602,-0.136 -2.7013,-0.189 -2.758,-0.116 -0.056,0.07 -0.6226,1.44 -1.2578,3.039 -1.7852,4.493 -4.3961,8.448 -7.9122,11.986 -1.7273,1.738 -3.1404,3.218 -3.1404,3.289 0,0.213 0.5717,0.153 2.5605,-0.27 z m -8.0346,-1.07 c 5.4679,-2.035 11.2867,-8.663 13.8814,-15.811 1.632,-4.496 0.7478,-4.409 -1.3403,0.133 -2.8463,6.19 -6.9894,11.032 -11.2138,13.106 -1.8435,0.906 -2.4548,1.019 -5.4594,1.019 -3.1136,0 -3.575,-0.09 -5.7863,-1.181 -5.1142,-2.516 -10.5547,-9.235 -12.359,-15.264 -0.2486,-0.831 -0.5869,-1.511 -0.7515,-1.511 -0.5691,0 -0.2779,3.031 0.5123,5.334 1.2748,3.713 3.3678,7.082 6.0932,9.805 4.9512,4.948 10.7345,6.486 16.4234,4.37 z m -18.27,-1.145 c -1.852,-1.959 -4.0656,-5.168 -4.8485,-7.03 l -0.4433,-1.054 -1.3652,2.056 c -1.6999,2.56 -4.51307,5.561 -6.19327,6.605 l -1.2752,0.794 5.15587,0.192 c 2.8357,0.106 6.4193,0.227 7.9633,0.267 l 2.8073,0.07 z m -37.42017,-0.453 c -1.771,-1.6 -4.5896,-5.768 -5.6811,-8.402 l -0.8207,-1.98 -1.1854,2.474 c -1.4908,3.11 -2.8774,5.131 -4.9237,7.178 -1.0186,1.018 -1.444,1.672 -1.1629,1.785 0.2438,0.101 3.7641,0.192 7.8227,0.207 l 7.3794,0.03 z m 20.8055,0.455 c 2.3786,-1.11 5.4928,-4.018 7.44227,-6.95 2.2933,-3.449 2.441,-3.975 1.8051,-6.43 -0.2945,-1.137 -0.5355,-2.723 -0.5355,-3.527 0,-1.003 -0.1533,-1.459 -0.4899,-1.459 -0.7604,0 -1.1603,0.698 -1.8329,3.2 -1.42827,5.314 -4.85937,11.2 -8.36777,14.354 -1.802,1.62 -1.8153,1.647 -0.8155,1.643 0.559,0 1.8164,-0.376 2.7942,-0.831 z m -37.0901,-0.816 c 4.0327,-2.887 7.979,-9.791 8.6436,-15.121 l 0.2364,-1.896 -1.3628,0.04 c -3.9567,0.109 -3.5628,-0.135 -4.4038,2.719 -0.9173,3.112 -3.0434,7.763 -4.6206,10.107 -0.6353,0.944 -2.0515,2.573 -3.1473,3.62 l -1.9921,1.904 2.5574,-0.137 c 2.1669,-0.115 2.7913,-0.303 4.0892,-1.233 z m 29.7073,0.422 c 4.3536,-2.027 8.3804,-7.288 10.5688,-13.806 0.4883,-1.456 0.9884,-2.907 1.1113,-3.228 0.1628,-0.424 0.023,-0.582 -0.5119,-0.582 -0.5673,0 -0.8244,0.345 -1.1242,1.511 -1.5045,5.849 -4.0315,10.288 -7.2312,12.703 -2.3192,1.751 -3.368,2.142 -5.7356,2.142 -2.3856,0 -4.4858,-0.892 -6.6831,-2.839 -3.1015,-2.748 -6.5639,-8.445 -7.3015,-12.015 -0.2046,-0.989 -0.4728,-1.353 -1.0596,-1.439 -0.6653,-0.101 -0.7855,0.05 -0.7855,0.985 0,1.512 1.505,5.685 3.0408,8.43 0.7021,1.256 2.2378,3.311 3.4126,4.566 3.9822,4.258 8.197,5.482 12.2991,3.572 z m -53.9578,-1.66 c -1.5363,-1.945 -3.84129,-6.244 -4.59837,-8.578 l -0.43251,-1.334 h -8.44977 -8.44988 l -0.45418,2.044 c -0.66858,3.011 -1.69407,5.561 -3.04039,7.562 l -1.19312,1.773 1.84284,0.05 c 4.90581,0.135 26.03718,0.476 26.14208,0.423 0.066,-0.03 -0.5491,-0.906 -1.3667,-1.94 z m 13.06,1.641 c 3.518,-1.045 7.6626,-5.85 10.3489,-11.999 1.8719,-4.285 2.1435,-5.355 1.3163,-5.189 -0.4186,0.08 -0.9272,1.043 -1.5741,2.968 -0.5258,1.565 -1.4289,3.719 -2.0069,4.786 -1.3888,2.565 -4.8037,6.189 -6.6954,7.104 -6.6121,3.201 -14.1178,-4.563 -16.9897,-17.576 -0.92322,-4.183 -1.28064,-14.364 -0.6764,-19.268 0.7656,-6.212 3.3246,-12.56 6.1745,-15.316 2.1136,-2.045 3.9711,-2.933 6.1329,-2.933 3.1266,0 5.029,0.899 7.8351,3.703 4.9429,4.94 7.5989,12.986 7.6096,23.055 0,2.32 0.096,2.755 0.5886,2.755 0.5259,0 0.5647,-0.516 0.3808,-5.067 -0.259,-6.406 -1.3663,-11.048 -3.8758,-16.247 -3.1733,-6.573 -7.3624,-9.792 -12.7501,-9.797 -2.4373,0 -2.8675,0.111 -4.7361,1.243 -4.4027,2.666 -7.73554,9.185 -9.25744,18.107 -0.66183,3.881 -0.7593,12.111 -0.19262,16.27 1.69487,12.439 7.25606,22.045 13.66656,23.606 1.7048,0.414 2.7716,0.368 4.7013,-0.205 z m -54.67273,-1.431 c -0.46588,-0.496 -1.2538,-1.644 -1.75102,-2.55 l -0.90393,-1.649 -5.49839,0.05 -5.49849,0.05 -0.6851,1.344 c -0.37677,0.739 -0.99798,1.744 -1.38049,2.233 l -0.69529,0.889 3.67863,0.197 c 2.02326,0.108 5.9067,0.228 8.62989,0.267 l 4.95127,0.07 z m -29.81053,-1.056 c -1.14382,-1.302 -2.17294,-3.37 -2.18927,-4.398 -0.0101,-0.319 -0.61747,-0.859 -1.3681,-1.204 -1.64699,-0.758 -2.70151,-2.518 -2.46696,-4.116 l 0.1653,-1.126 -8.91696,0.02 c -4.9043,0.01 -9.55661,0.134 -10.33848,0.274 l -1.42151,0.252 -0.25663,2.127 c -0.31226,2.59 -1.81764,6.59 -3.01559,8.014 l -0.88176,1.048 7.76557,0.05 c 4.27101,0.02 11.36579,0.145 15.76621,0.267 4.40032,0.121 8.06191,0.187 8.1368,0.145 0.0746,-0.04 -0.36548,-0.65 -0.97862,-1.348 z m 40.71779,0.417 c 3.07416,-2.107 5.08624,-7.427 5.09974,-13.483 l 0.0101,-2.756 h -1.56394 -1.56404 l -0.23596,2.578 c -0.56022,6.124 -1.74568,9.507 -3.85855,11.014 -2.02961,1.449 -5.64796,0.881 -7.97866,-1.25 -0.44007,-0.403 -0.80011,-0.575 -0.80011,-0.383 0,0.7 1.79234,2.75 3.57592,4.091 1.58621,1.191 2.0792,1.373 3.71048,1.373 1.54892,0 2.18635,-0.208 3.60897,-1.184 z m 283.42784,-0.581 c -0.8735,-0.972 -3.0886,-3.973 -4.9223,-6.668 -5.2718,-7.748 -8.9626,-12.133 -18.3994,-21.859 l -5.1091,-5.266 h -5.8391 -5.839 l 3.6375,4 c 4.9129,5.404 10.4325,12.358 13.8557,17.458 3.1,4.619 4.5512,7.292 6.0162,11.079 l 0.9628,2.488 4.757,0.194 c 2.6164,0.107 6.4919,0.227 8.6125,0.267 l 3.8555,0.07 z m 12.4953,1.223 c 0.1024,-0.103 -0.6249,-1.022 -1.6162,-2.044 -0.9914,-1.022 -2.6547,-3.058 -3.6964,-4.525 -3.6832,-5.187 -6.2505,-8.093 -14.6495,-16.584 l -8.4904,-8.584 -2.7017,-0.253 c -3.2081,-0.301 -4.2298,-0.705 -4.4993,-1.778 -0.1562,-0.622 -0.5308,-0.841 -1.7096,-0.999 -0.8302,-0.112 -1.5347,-0.173 -1.5653,-0.137 -0.03,0.04 2.9151,2.866 6.5462,6.288 7.7987,7.351 16.6777,16.745 19.8318,20.98 1.2383,1.662 2.8598,4.199 3.6035,5.636 l 1.352,2.615 3.7043,-0.215 c 2.0372,-0.117 3.788,-0.297 3.8906,-0.4 z m -126.4049,-3.813 c 0.1117,-2.2 0.2953,-6.041 0.408,-8.534 l 0.2049,-4.534 h -0.8604 c -0.8363,0 -0.8664,0.101 -1.0788,3.467 -0.7208,11.436 -0.7238,12.62 -0.034,13.124 0.359,0.262 0.7664,0.477 0.9052,0.477 0.1389,0 0.344,-1.8 0.4555,-4 z m 95.5192,3.645 c 0,-0.196 -0.1523,-0.356 -0.3384,-0.356 -0.6056,0 -2.3535,-2.903 -5.5337,-9.19 -3.6642,-7.246 -7.0484,-12.425 -12.9855,-19.879 l -4.3194,-5.423 h -3.7904 c -2.0848,0 -4.1571,-0.104 -4.6053,-0.224 -0.699,-0.186 -0.5146,0.231 1.2964,2.939 6.1177,9.146 11.8825,21.327 13.5652,28.66 l 0.7932,3.458 5.2032,0.109 c 2.8618,0.06 6.4433,0.144 7.959,0.186 1.6525,0.05 2.7557,-0.06 2.7557,-0.276 z m -296.23178,-0.985 c 0.9385,-0.694 2.51988,-2.788 2.51988,-3.335 0,-0.775 -1.32687,-0.168 -2.0405,0.935 -1.71785,2.652 -4.00419,2.872 -7.23821,0.696 -1.01421,-0.684 -1.90584,-1.18 -1.98144,-1.104 -0.24402,0.244 2.76583,2.776 3.91923,3.297 1.40025,0.632 3.60918,0.408 4.82104,-0.489 z m 260.13568,-0.984 c -0.5185,-1.064 -1.1501,-3.53 -1.5908,-6.21 -1.4126,-8.588 -1.8714,-10.195 -7.5632,-26.491 -1.2262,-3.51 -1.265,-3.568 -3.055,-4.551 -0.9972,-0.547 -2.6644,-1.774 -3.7049,-2.724 l -1.892,-1.73 1.6748,6.637 c 3.3354,13.214 4.8326,22.199 5.1781,31.073 l 0.2177,5.592 5.7255,0.101 c 3.1489,0.05 5.7578,0.09 5.7975,0.08 0.039,0 -0.3147,-0.807 -0.7877,-1.778 z m 16.7291,0.209 c -0.7874,-1.17 -1.9801,-4.21 -3.5593,-9.072 -2.3461,-7.223 -6.2832,-15.942 -9.9783,-22.1 l -1.3044,-2.174 -2.9952,-0.418 c -1.6473,-0.231 -4.0978,-0.793 -5.4454,-1.248 l -2.4501,-0.83 1.2451,2.711 c 4.1108,8.948 7.7609,18.293 9.5316,24.403 0.7751,2.675 1.0641,4.102 1.8137,8.954 0.2175,1.408 0.2323,1.411 8.2168,1.48 l 6.1097,0.05 z m -328.03414,-0.485 c -0.52404,-1.039 -1.03356,-2.199 -1.13223,-2.578 -0.16632,-0.638 -0.47102,-0.681 -4.17051,-0.578 l -3.99099,0.112 -0.71283,1.666 c -0.39199,0.917 -1.04988,2.027 -1.46193,2.467 l -0.74922,0.8 h 6.58527 6.58526 z m 208.82774,1.445 c 0.5537,-0.414 0.5084,-1.169 -0.6432,-10.713 -0.6813,-5.647 -1.2388,-10.407 -1.2388,-10.578 0,-0.393 -0.7423,-0.394 -1.3607,0 -0.3869,0.246 -0.2782,2.115 0.6055,10.411 0.5925,5.562 1.1818,10.386 1.3098,10.719 0.2773,0.722 0.5339,0.753 1.3274,0.162 z m 88.5505,-0.712 c -0.5163,-0.97 -0.6553,-2.653 -0.8659,-10.484 -0.1379,-5.13 -0.3379,-9.93 -0.4445,-10.667 -0.1065,-0.737 -0.9526,-6.018 -1.8802,-11.738 l -1.6866,-10.397 -1.0855,-0.187 c -1.7254,-0.298 -3.9396,0.04 -3.866,0.591 0.035,0.263 0.315,2.16 0.6215,4.213 1.9102,12.796 1.6327,26.99 -0.6837,34.984 -0.5026,1.734 -1.0685,3.442 -1.2579,3.796 -0.1893,0.354 -0.3442,0.734 -0.3442,0.843 0,0.111 2.7243,0.202 6.054,0.202 h 6.0541 z m 87.1815,0.589 c 0.7822,-0.131 1.5444,-0.307 1.6937,-0.393 0.1493,-0.09 -0.6618,-0.778 -1.8023,-1.54 -1.1406,-0.761 -2.8629,-2.235 -3.8273,-3.276 -2.7233,-2.937 -14.8335,-16.595 -19.1273,-21.573 l -3.8618,-4.476 -1.8276,0.126 c -1.0052,0.07 -2.4097,0.23 -3.1213,0.356 l -1.2935,0.23 3.2493,2.793 c 5.5468,4.768 18.3718,16.985 20.7709,19.786 1.2564,1.466 3.097,3.993 4.0904,5.615 1.63,2.66 1.8952,2.93 2.7202,2.768 0.5029,-0.101 1.5543,-0.286 2.3366,-0.416 z m -221.42997,-5.418 c 0.093,-4.74 0.058,-5.038 -0.5739,-5.038 -0.8265,0 -1.1249,1.75 -1.1249,6.598 0,3.227 0.2085,3.823 1.2446,3.566 0.2102,-0.05 0.3959,-2.148 0.4542,-5.126 z m -155.4532,4.185 c 2.67813,-1.655 4.26818,-7.327 3.98102,-14.201 -0.19091,-4.568 -0.52938,-5.334 -2.35862,-5.334 h -1.33957 l 0.48039,3.111 c 0.59238,3.839 0.39442,9.72 -0.38755,11.514 -1.72078,3.947 -4.36414,4.672 -6.37874,1.748 -0.59287,-0.86 -0.58541,-0.877 0.5321,-1.244 1.79124,-0.589 2.36234,-1.993 2.76603,-6.804 0.19564,-2.329 0.59429,-5.116 0.88609,-6.191 0.2917,-1.076 0.5323,-1.973 0.53462,-1.993 0.0222,-0.191 -4.25548,0.375 -6.17291,0.816 -2.92316,0.674 -4.34498,1.788 -5.54394,4.349 -0.46528,0.993 -0.96693,1.806 -1.1148,1.806 -0.42304,0 -2.33603,-2.453 -3.23563,-4.149 -0.44955,-0.848 -0.93407,-1.541 -1.0766,-1.541 -0.14252,0 -0.52706,0.44 -0.85464,0.979 -1.45468,2.388 -2.243,3.373 -3.35084,4.191 -0.65245,0.482 -1.2803,0.876 -1.39521,0.876 -0.11491,0 -0.4187,-0.711 -0.67513,-1.58 -0.70677,-2.394 -2.35891,-4.059 -4.38923,-4.424 -0.92278,-0.166 -1.7363,-0.243 -1.80777,-0.171 -0.19483,0.194 1.31498,6.121 2.04907,8.043 0.47626,1.247 0.57887,2.142 0.40006,3.489 -0.21691,1.636 -0.17811,1.793 0.39804,1.621 1.61898,-0.486 10.17489,-1.012 13.82791,-0.851 2.2309,0.101 4.05631,0.07 4.05631,-0.06 0,-0.134 -0.23496,-0.552 -0.52212,-0.932 -0.28717,-0.38 -0.52605,-1.01 -0.53099,-1.401 -0.0202,-1.627 2.50305,-4.082 4.20004,-4.087 0.47837,0 1.35237,0.515 2.04453,1.206 1.00675,1.007 1.20904,1.47 1.20904,2.766 0,0.856 -0.24977,1.913 -0.55498,2.349 -0.62735,0.896 -2.43975,1.942 -2.77802,1.603 -0.12256,-0.122 -0.22286,-0.06 -0.22286,0.139 0,0.575 1.92005,3.071 3.17455,4.126 1.37203,1.154 2.55123,1.221 4.15035,0.232 z m 115.8384,-0.422 c 0.2805,-1.047 0.2869,-7.513 0.01,-8.238 -0.1187,-0.31 -0.5188,-0.563 -0.889,-0.563 -0.6216,0 -0.6731,0.315 -0.6731,4.113 0,3.835 0.3127,5.488 1.0378,5.488 0.1659,0 0.398,-0.36 0.516,-0.8 z m 268.15637,0.236 c 2.4719,-0.359 2.479,-0.466 0.1343,-1.98 -9.822,-6.344 -18.9798,-16.282 -25.1809,-27.326 -0.8236,-1.466 -1.6196,-2.792 -1.7689,-2.946 -0.2434,-0.252 -5.0618,1.458 -5.5854,1.982 -0.3311,0.331 2.7065,3.41 14.5362,14.734 7.4756,7.155 11.5837,11.365 12.9788,13.3 1.6383,2.272 2.1816,2.792 2.7524,2.637 0.3911,-0.106 1.3512,-0.287 2.1335,-0.401 z m -406.27346,-0.719 c 1.1788,-0.992 1.97861,-2.211 1.6602,-2.529 -0.10715,-0.107 -0.76302,0.304 -1.4577,0.915 -1.74921,1.535 -2.73468,1.714 -4.26143,0.77 -1.57593,-0.974 -1.64709,-0.367 -0.0998,0.853 1.47555,1.162 2.76966,1.16 4.15882,0 z m 213.51386,-4.673 c 0.7029,-2.885 1.278,-5.458 1.278,-5.719 -10e-5,-0.292 -0.5257,-0.06 -1.3566,0.599 -1.3106,1.039 -1.3837,1.215 -2.1549,5.214 -0.621,3.219 -0.7048,4.25 -0.3777,4.644 0.9618,1.159 1.3425,0.468 2.6112,-4.738 z m 61.7189,1.367 c -0.013,-2.1 -1.6679,-9.707 -2.1819,-10.033 -0.5923,-0.375 -1.7223,-0.406 -1.7186,-0.05 0,0.446 2.1264,11.244 2.3458,11.938 0.358,1.132 1.5647,-0.31 1.5547,-1.859 z m -90.48457,-3.932 c -0.8836,-3.473 -1.4116,-4.483 -1.8066,-3.454 -0.2212,0.577 1.0747,7.815 1.5314,8.554 0.1266,0.205 0.4295,-0.115 0.6729,-0.713 0.3788,-0.927 0.3214,-1.562 -0.3977,-4.387 z m -39.6508,3.296 c 0,-2.25 -0.7993,-5.798 -1.306,-5.798 -0.7664,0 -0.4988,4.446 0.424,7.044 0.3044,0.858 0.882,0.04 0.882,-1.246 z m -53.05905,0.759 c 0.43574,-0.306 1.02811,-1.011 1.31629,-1.569 0.54873,-1.061 1.60547,-6.482 1.60547,-8.235 0,-0.9 -0.12781,-1.021 -1.08174,-1.021 -0.59499,0 -2.31507,-0.271 -3.82256,-0.604 -1.5074,-0.332 -3.33865,-0.575 -4.06941,-0.542 -1.14353,0.05 -1.40509,-0.08 -1.87601,-0.996 -0.30097,-0.581 -0.75324,-1.058 -1.00493,-1.058 -0.571,0 -2.00996,1.544 -3.02758,3.25 -1.39169,2.331 -1.7605,2.437 -3.10107,0.886 -0.64782,-0.749 -1.70697,-2.386 -2.35368,-3.637 -0.6467,-1.251 -1.27919,-2.274 -1.40549,-2.275 -0.12629,0 -0.71736,0.759 -1.31356,1.687 -1.66988,2.603 -5.26384,5.684 -6.20678,5.322 -0.23939,-0.09 -0.62795,-0.867 -0.86361,-1.721 -1.0511,-3.816 -2.65031,-4.91 -8.36642,-5.719 -3.10953,-0.441 -3.45143,-0.435 -3.30931,0.06 0.70607,2.446 1.25248,4.688 1.43855,5.901 0.19353,1.261 0.40651,1.527 1.70868,2.133 2.65898,1.24 3.56745,4.213 2.0654,6.758 -0.41074,0.696 -0.74679,1.336 -0.74679,1.423 0,0.327 2.77298,0.125 5.68939,-0.412 2.22012,-0.41 5.35475,-0.557 11.80818,-0.556 4.83212,0 9.15251,0.106 9.60075,0.235 0.68904,0.197 0.64035,0.09 -0.31488,-0.688 -1.65627,-1.351 -2.12467,-3.05 -1.29855,-4.712 1.3429,-2.701 4.07818,-3.505 6.60633,-1.943 2.85271,1.763 2.74516,5.88 -0.19323,7.399 -0.82521,0.427 -0.95372,0.622 -0.56949,0.865 0.77159,0.488 2.21377,0.381 3.08605,-0.229 z m 167.60032,-0.238 c 0.6891,-1.287 2.1063,-6.802 1.8201,-7.081 -1.1804,-1.153 -3.8559,5.433 -2.9186,7.184 0.4686,0.875 0.5804,0.865 1.0985,-0.103 z m -27.5628,-1.964 c 0.7973,-1.05 0.5474,-2.171 -1.9586,-8.784 -2.1635,-5.71 -3.1443,-7.515 -3.7526,-6.908 -0.2113,0.212 4.7945,16.315 5.0715,16.315 0.092,0 0.38,-0.28 0.6397,-0.623 z m -176.60183,-1.313 c 0.23455,-0.283 0.37415,-0.883 0.31024,-1.334 -0.16621,-1.173 -1.84485,-1.167 -2.01107,0 -0.23757,1.678 0.76282,2.458 1.70083,1.328 z m 32.52675,-0.05 c 0.7091,-0.708 0.7093,-1.372 7.1e-4,-2.081 -0.42123,-0.421 -0.72633,-0.469 -1.24452,-0.191 -0.76766,0.411 -0.9126,1.752 -0.25975,2.405 0.56234,0.562 0.83297,0.538 1.50356,-0.133 z m -97.32012,-0.512 c 0.13114,-0.749 -0.46355,-1.555 -0.93356,-1.265 -0.21742,0.135 -0.39532,0.648 -0.39532,1.138 0,0.659 0.16329,0.863 0.61818,0.776 0.33998,-0.07 0.6598,-0.357 0.7107,-0.649 z m 24.43108,0.04 c 0.28394,-0.46 -0.16873,-1.49 -0.55085,-1.254 -0.42334,0.262 -0.40983,1.577 0.0161,1.577 0.18405,0 0.42455,-0.145 0.53452,-0.323 z m 154.30235,-3.211 c 0.5025,-1.651 0.8294,-3.085 0.7267,-3.188 -0.3188,-0.318 -1.3593,0.511 -2.2286,1.777 -0.6737,0.982 -0.7922,1.504 -0.625,2.752 0.4178,3.12 0.8526,2.845 2.1269,-1.341 z m -203.00797,2.378 c 1.18001,-5.219 4.44659,-21.502 4.44054,-22.134 -0.0151,-1.555 -0.65305,0.446 -1.3937,4.371 -0.41578,2.203 -1.53622,7.157 -2.48994,11.009 -0.95363,3.852 -1.65728,7.128 -1.56364,7.279 0.32728,0.53 0.82743,0.269 1.00674,-0.525 z m 7.74532,-4.178 c 0.54066,-2.64 1.62179,-7.723 2.40235,-11.296 0.78066,-3.572 1.4193,-6.752 1.4193,-7.066 0,-1.172 -1.00815,0.249 -1.24744,1.759 -0.444,2.801 -3.37503,15.811 -4.21687,18.718 l -0.84013,2.901 0.74981,-0.108 c 0.66203,-0.09 0.86513,-0.669 1.73298,-4.908 z m 155.62455,3.971 c 0.7744,-1.448 2.9299,-7.596 3.1029,-8.852 0.1765,-1.281 0.1181,-1.23 -1.3041,1.148 -1.8756,3.135 -2.8342,5.546 -2.8342,7.125 0,1.342 0.4828,1.611 1.0354,0.579 z m 270.46067,-3.384 c -1.2407,-2.806 -1.6091,-5.431 -1.6009,-11.408 0.01,-5.295 0.479,-14.337 0.9224,-17.68 l 0.2287,-1.723 h -1.79 c -1.7395,0 -1.8158,0.04 -2.7071,1.565 -1.221,2.084 -3.701,4.215 -6.2991,5.415 -1.1662,0.538 -2.0511,1.148 -1.9664,1.355 5.9498,14.551 8.2327,18.938 11.7161,22.512 1.0007,1.026 1.9362,1.867 2.0787,1.867 0.1427,0 -0.1194,-0.857 -0.5824,-1.903 z m -196.3283,0.629 c 0.4218,-1.099 0.2365,-2.638 -0.3175,-2.638 -0.3951,0 -0.5334,0.415 -0.5334,1.601 0,1.586 0.4361,2.118 0.8509,1.037 z m -24.71497,-1.707 c 1.3725,-1.46 2.8799,-8.398 1.8249,-8.398 -0.4687,0 -4.6296,4.157 -4.6296,4.625 0,0.402 1.0683,0.749 1.4941,0.486 0.1998,-0.123 0.7434,-1.083 1.2081,-2.134 0.4645,-1.051 0.9486,-1.911 1.0756,-1.911 0.127,0 0.149,1.023 0.048,2.271 -0.3053,3.803 -2.0086,5.648 -4.0069,4.339 -1.18,-0.773 -1.1393,-0.104 0.05,0.832 1.2179,0.958 1.9575,0.931 2.9345,-0.11 z m 83.24647,-0.241 c 0,-0.453 -0.2442,-0.69 -0.7111,-0.69 -0.8277,0 -0.8615,0.125 -0.2844,1.048 0.5004,0.803 0.9955,0.624 0.9955,-0.358 z m -123.17587,-0.37 c 0.5503,-0.608 0.7007,-1.422 0.8018,-4.337 0.144,-4.153 -0.2436,-5.798 -1.7774,-7.545 -1.2966,-1.477 -2.0177,-1.545 -3.4652,-0.327 -1.2277,1.033 -1.8324,2.79 -1.7671,5.133 l 0.044,1.6 0.2532,-1.955 c 0.4904,-3.789 2.2439,-5.693 4.1135,-4.468 1.2463,0.817 1.801,2.31 2.0872,5.62 0.3866,4.471 -0.7369,6.975 -2.666,5.943 -0.7647,-0.409 -2.0816,-2.9 -2.0954,-3.963 0,-0.331 -0.1447,-0.686 -0.312,-0.79 -0.2834,-0.175 -0.2347,0.633 0.1531,2.54 0.2461,1.211 2.2425,3.295 3.1553,3.295 0.4383,0 1.1017,-0.335 1.4743,-0.746 z m 120.33127,0.09 c 0,-0.571 -0.3237,-0.67 -2.4002,-0.734 -1.3201,-0.04 -5.8404,-0.277 -10.0452,-0.526 -4.2048,-0.25 -7.7894,-0.327 -7.9659,-0.172 -0.7448,0.654 1.9052,1.003 10.4389,1.373 4.9783,0.215 9.1253,0.466 9.2156,0.557 0.3733,0.373 0.7568,0.121 0.7568,-0.498 z m -110.40867,-2.329 c 2.1513,-0.277 6.7917,-0.602 10.312,-0.721 3.5202,-0.12 7.3167,-0.308 8.4366,-0.42 l 2.0362,-0.203 -1.1473,-1.368 -1.1471,-1.366 -9.2453,0.02 c -8.0542,0.02 -14.1578,-0.352 -16.2679,-0.992 -0.5594,-0.169 -0.6222,0.124 -0.6222,2.907 v 3.095 l 1.8668,-0.225 c 1.0267,-0.125 3.6269,-0.453 5.7782,-0.73 z m 131.53487,-0.03 c 0.1358,-0.542 -0.01,-1.343 -0.368,-2.037 -0.9195,-1.778 -3.7645,-5.961 -4.0544,-5.961 -0.1429,0 -0.4722,0.256 -0.7319,0.569 -0.4002,0.482 -0.326,0.847 0.4883,2.4 1.172,2.236 3.7571,5.921 4.1532,5.921 0.1589,0 0.3897,-0.402 0.5128,-0.892 z m -94.37637,0.03 c 3.5226,-0.664 10.74677,-1.251 16.78487,-1.363 4.7673,-0.09 4.8811,-0.07 5.2419,0.72 0.909,1.997 2.5085,1.187 2.5085,-1.27 0,-2.489 -1.4887,-3.759 -2.5439,-2.169 -0.4965,0.748 -0.509,0.748 -10.2664,0.341 -8.56587,-0.356 -13.07967,-0.702 -14.92527,-1.141 -0.4327,-0.102 -0.5529,0.393 -0.6372,2.629 -0.1201,3.187 -0.3621,3.045 3.8375,2.253 z m -48.101,-2.231 0.7919,-1.651 -1.0159,0.974 -1.016,0.974 -0.7538,-1.059 c -1.1445,-1.607 -0.8256,-3.636 0.492,-3.131 0.4664,0.179 0.5751,0.56 0.471,1.652 -0.1589,1.667 0.1585,1.834 0.7534,0.399 0.3417,-0.826 0.3193,-1.268 -0.1166,-2.312 -0.2966,-0.71 -0.7627,-1.291 -1.0356,-1.291 -0.7912,0 -1.6861,1.226 -1.9121,2.618 -0.1757,1.082 -0.02,1.532 0.993,2.878 0.6607,0.877 1.2813,1.595 1.3791,1.596 0.098,0 0.5342,-0.74 0.9696,-1.647 z m 134.50777,0.956 c 0,-0.682 -0.2371,-0.711 -5.6449,-0.711 -3.1047,0 -6.1449,-0.101 -6.7561,-0.223 -0.8798,-0.175 -1.1112,-0.101 -1.1112,0.356 0,0.318 0.12,0.596 0.2667,0.618 0.4382,0.07 9.3639,0.546 11.3787,0.611 1.6498,0.05 1.8668,-0.02 1.8668,-0.651 z m -99.92257,-1.648 c 1.2895,-1.796 1.2168,-2.417 -0.3772,-3.225 -1.1434,-0.579 -2.1083,0.283 -2.1083,1.882 0,1.341 0.5506,2.991 0.9977,2.991 0.1672,0 0.8368,-0.742 1.4878,-1.648 z m -70.75758,0.634 c 0,-0.85 -0.86492,-2.599 -1.43633,-2.905 -1.39723,-0.748 -1.76392,-0.451 -1.76392,1.43 v 1.778 h 1.60012 c 0.88015,0 1.60013,-0.136 1.60013,-0.303 z m -6.20415,-1.639 c 0.26549,-0.775 0.42646,-1.466 0.35762,-1.534 -0.1774,-0.178 -6.94208,1 -7.95215,1.384 -2.16871,0.824 0.54319,1.686 5.03251,1.598 l 2.07911,-0.04 z m 162.3054,0.921 c 0,-0.362 -1.6536,-0.592 -8.0007,-1.113 -2.5424,-0.208 -6.795,-0.628 -9.4501,-0.93 -2.6552,-0.303 -5.275,-0.498 -5.8219,-0.432 -0.987,0.117 -0.9894,0.124 -0.3284,0.895 0.6209,0.724 1.1581,0.804 7.9554,1.176 4.0091,0.22 7.7695,0.444 8.3562,0.499 2.6198,0.247 7.2895,0.186 7.2895,-0.09 z m 14.2438,-0.795 c 0.2916,-0.545 0.2943,-0.856 0.01,-1.141 -0.5295,-0.529 -1.6281,0.564 -1.3347,1.329 0.2988,0.778 0.8491,0.701 1.3248,-0.188 z m -256.82785,-1.037 c 4.94522,-0.177 9.14556,-0.417 9.33405,-0.534 0.18848,-0.115 0.3427,-0.385 0.3427,-0.595 0,-0.272 -2.27394,-0.313 -7.73392,-0.137 -23.94837,0.766 -27.57267,0.904 -27.72669,1.058 -0.0927,0.09 -0.0554,0.352 0.0816,0.575 0.25945,0.42 5.89935,0.339 25.7018,-0.367 z m 203.84125,0.366 c 0.6931,-0.193 1.7756,-0.882 2.4053,-1.533 l 1.1452,-1.181 -1.4761,-0.966 c -0.8118,-0.532 -1.5058,-0.922 -1.5422,-0.866 -0.036,0.05 -0.3479,0.858 -0.6922,1.788 l -0.6258,1.689 h -2.1251 c -1.419,0 -2.047,0.126 -1.8899,0.38 0.5922,0.959 2.7263,1.264 4.8008,0.689 z m -153.45014,-1.604 c 17.75793,-0.858 18.11041,-0.894 18.2484,-1.865 0.10674,-0.752 -0.0111,-0.8 -1.95574,-0.792 -1.13808,0 -6.70964,0.241 -12.38119,0.527 -5.67155,0.285 -12.19211,0.522 -14.49004,0.525 -2.29803,0 -4.17817,0.09 -4.17817,0.199 0,0.613 1.64004,2.279 2.11318,2.146 0.3045,-0.09 5.9942,-0.419 12.64356,-0.74 z m 322.03824,-2.338 c -0.553,-1.647 -1.3889,-4.474 -1.8574,-6.283 -0.4685,-1.809 -1.0266,-3.289 -1.2404,-3.289 -0.3762,0 -3.7731,1.071 -4.0112,1.265 -0.064,0.05 0.078,0.47 0.3152,0.926 0.6366,1.222 7.5254,10.65 7.6733,10.502 0.069,-0.07 -0.3264,-1.474 -0.8795,-3.121 z m -205.17947,-3.083 c 9.9162,-9.725 12.33287,-12.276 18.14317,-19.153 1.3031,-1.542 3.6789,-4.324 5.2797,-6.183 3.4621,-4.017 3.9811,-4.932 3.838,-6.755 l -0.1083,-1.382 -3.9495,4.513 c -8.3884,9.586 -8.7727,10.068 -8.3582,10.482 0.6579,0.659 0.4509,0.965 -0.651,0.965 -1.1586,0 -2.1536,1.078 -2.1536,2.333 0,0.438 -0.33757,0.908 -0.80397,1.12 -0.4422,0.202 -3.2068,2.427 -6.1435,4.946 -6.4214,5.509 -11.1389,9.28 -13.3673,10.688 l -1.6466,1.04 1.0349,0.593 c 0.5691,0.327 1.3101,1.078 1.6466,1.67 0.3365,0.59 0.7365,1.075 0.8889,1.077 0.1525,0 3.0103,-2.678 6.3507,-5.954 z m -51.8595,4.542 c -0.2473,-0.945 -4.7965,-3.92 -5.9955,-3.92 -0.422,0 -0.078,1.382 0.4676,1.875 0.5981,0.54 4.9979,2.746 5.4782,2.748 0.1284,0 0.1507,-0.316 0.049,-0.703 z m 63.825,-4.991 c -0.095,-2.937 -0.2749,-5.442 -0.4016,-5.568 -0.1267,-0.127 -0.5515,0.06 -0.9438,0.415 -0.6486,0.587 -0.7133,1.092 -0.7133,5.568 v 4.923 h 1.1151 1.11497 z m 5.24077,2.317 c 0.1385,-1.662 0.1843,-5.632 0.102,-8.821 l -0.1498,-5.798 2.6858,1.153 c 1.4772,0.635 3.1384,1.264 3.6915,1.399 0.9425,0.229 0.9986,0.181 0.8891,-0.769 -0.1063,-0.921 -0.3948,-1.116 -3.1394,-2.125 l -3.0225,-1.112 -1.9067,1.624 -1.9067,1.624 0.2257,1.789 c 0.1242,0.985 0.3769,2.91 0.5617,4.279 0.1847,1.368 0.341,4.129 0.3475,6.134 0.011,3.346 0.067,3.644 0.6908,3.644 0.5956,0 0.7104,-0.372 0.931,-3.021 z m 16.0928,2.387 c 0.3491,-0.35 1.083,-1.223 1.6307,-1.942 0.9299,-1.218 0.9593,-1.357 0.4443,-2.093 -0.415,-0.592 -0.5914,-0.662 -0.7122,-0.281 -0.6354,2.002 -1.4222,3.883 -1.625,3.883 -0.133,0 -0.5694,-0.599 -0.9696,-1.333 -0.5834,-1.069 -0.663,-1.571 -0.4009,-2.528 0.4095,-1.496 0.1517,-1.781 -0.8203,-0.907 -0.7464,0.671 -0.7622,0.669 -1.2901,-0.121 -0.7455,-1.116 -1.1589,-0.997 -1.1589,0.332 0,2.204 2.2997,5.624 3.7816,5.624 0.2669,0 0.7711,-0.286 1.1204,-0.634 z m 35.6346,0.491 c 0,-0.08 -0.6823,-0.545 -1.5163,-1.034 -6.0626,-3.553 -10.9016,-13.909 -12.9078,-27.626 -0.8918,-6.097 -0.2715,-11.931 1.6737,-15.744 0.9721,-1.906 3.0949,-4.813 3.8035,-5.21 0.3216,-0.179 0.5061,-0.395 0.4099,-0.479 -0.096,-0.08 -2.7351,0.128 -5.8642,0.47 -3.1291,0.342 -7.9888,0.821 -10.7993,1.066 l -5.11,0.446 -0.7979,1.814 c -1.3244,3.012 -1.4403,3.563 -0.6868,3.275 0.3547,-0.136 3.8354,-0.347 7.7349,-0.468 6.0151,-0.185 7.0651,-0.143 6.926,0.284 -0.2312,0.707 -1.57,1.291 -4.7916,2.091 -2.3636,0.587 -10.181,1.788 -11.6338,1.788 -0.3016,0 -0.7289,1.521 -1.2733,4.534 -1.1888,6.578 -1.4749,6.755 -1.293,0.8 0.1697,-5.554 0.4816,-6.96 1.9724,-8.89 1.2525,-1.621 2.8622,-4.392 2.8622,-4.927 0,-0.63 -2.4963,0.746 -3.832,2.112 -0.6202,0.635 -1.3921,1.95 -1.7153,2.923 -1.8582,5.594 -0.8756,20.223 1.9786,29.46 1.2659,4.096 4.7757,8.516 8.1172,10.22 2.2427,1.144 6.6581,1.809 16.6087,2.502 5.0849,0.354 9.4452,0.664 9.6896,0.689 0.2446,0.03 0.4446,-0.02 0.4446,-0.1 z m -7.8821,-4.266 c -1.1359,-0.868 -1.8733,-1.842 -2.5691,-3.392 -1.0567,-2.354 -1.1766,-4.27 -0.1461,-2.332 0.3124,0.586 1.4714,2.326 2.5759,3.866 1.1043,1.539 1.9459,2.861 1.8701,2.936 -0.076,0.08 -0.8546,-0.41 -1.7308,-1.078 z m -13.4864,-0.403 c -5.449,-0.849 -8.8682,-2.447 -10.954,-5.117 -2.3334,-2.986 -2.2679,-3.363 0.1807,-1.037 2.9091,2.764 3.3856,2.931 9.9178,3.489 8.1235,0.693 12.6232,1.668 12.6232,2.734 0,0.637 -7.5167,0.594 -11.7677,-0.07 z m 4.9007,-32.347 c -0.1325,-0.977 -0.096,-2.667 0.083,-3.753 0.3248,-1.982 2.0635,-6.025 2.5911,-6.025 0.5112,0 0.2931,1.722 -0.46,3.632 -0.4077,1.034 -1.0186,3.24 -1.3573,4.902 l -0.6159,3.023 z m 34.331,35.988 c 5.4981,-1.998 8.0944,-5.794 8.0944,-11.835 0,-1.576 -0.2794,-3.469 -0.7255,-4.914 l -0.7255,-2.348 h -3.5248 c -1.9386,0 -3.9332,-0.186 -4.4324,-0.413 -1.3015,-0.593 -1.7067,-2.476 -1.4083,-6.543 0.1713,-2.333 0.1283,-3.356 -0.1406,-3.356 -0.2128,0 -1.3084,0.24 -2.4347,0.534 -2.6081,0.679 -7.3024,0.685 -9.5678,0.01 -1.4807,-0.44 -3.2793,-1.444 -5.755,-3.213 -0.3772,-0.27 -0.8738,0.06 -2.0504,1.346 -2.1266,2.329 -3.2959,4.889 -3.7934,8.302 -0.3534,2.425 -0.3295,3.338 0.151,5.777 1.4666,7.444 6.7078,14.048 13.0349,16.425 3.0347,1.14 4.5619,1.379 7.8603,1.231 2.0367,-0.09 3.8036,-0.418 5.4178,-1.005 z m -9.9632,-2.07 c -1.0333,-0.171 -2.5206,-0.64 -3.3052,-1.04 -1.4836,-0.757 -4.3708,-3.173 -4.1069,-3.437 0.084,-0.08 1.1003,0.327 2.2602,0.913 4.1461,2.094 8.7692,2.73 11.8736,1.634 1.8993,-0.67 3.6009,-2.249 4.9663,-4.607 l 1.0291,-1.778 v 1.167 c 0.013,4.762 -6.1712,8.239 -12.7204,7.148 z m -165.68585,2.337 c 4.62782,-0.265 5.52329,-0.484 5.0559,-1.24 -0.33888,-0.549 -9.99416,-0.264 -10.5693,0.31 -0.49218,0.493 -0.0282,1.599 0.57342,1.368 0.26459,-0.102 2.48753,-0.299 4.93998,-0.438 z m 65.58058,-6.119 c -0.227,-6.341 -0.9993,-10.986 -2.5769,-15.502 -2.0144,-5.766 -6.0992,-11.135 -10.0084,-13.156 -1.206,-0.624 -4.7358,-0.746 -8.1073,-0.281 l -1.7778,0.245 2.535,0.788 c 9.215,2.863 16.1331,15.705 16.1331,29.947 0,3.796 0.068,3.915 2.2236,3.915 h 1.792 z m 3.4554,5.067 c 0.276,-1.099 1.151,-1.148 3.0684,-0.17 1.019,0.52 1.4082,0.592 1.4082,0.258 0,-0.253 -1.024,-0.98 -2.2754,-1.616 l -2.2753,-1.156 -0.2614,-4.879 c -0.2823,-5.272 0.088,-7.839 1.6573,-11.487 0.8561,-1.991 1.196,-2.164 1.5413,-0.788 0.48,1.912 5.3579,12.174 5.7916,12.184 1.1222,0.02 -0.049,-3.552 -3.7364,-11.408 -1.3311,-2.836 -1.6859,-3.924 -1.4292,-4.383 0.1878,-0.335 0.2685,-0.683 0.1793,-0.772 -0.2435,-0.244 -3.3536,6.226 -3.7785,7.86 -0.861,3.311 -1.1289,6.916 -0.892,12.002 0.2341,5.027 0.5209,6.272 1.0021,4.355 z m -19.8001,0.09 c 0.1902,-0.244 1.5161,-3.084 2.9466,-6.311 1.8062,-4.075 2.6507,-6.438 2.7643,-7.734 0.095,-1.088 0.019,-1.867 -0.1836,-1.867 -0.4068,0 -2.1078,3.611 -3.6018,7.645 -0.5793,1.565 -1.5538,4.01 -2.1656,5.435 -1.028,2.394 -1.1349,3.276 -0.3967,3.276 0.1602,0 0.4467,-0.199 0.6368,-0.444 z m 65.08327,0 c -0.2773,-0.851 -3.8259,-2.123 -3.8259,-1.372 0,0.217 0.32,0.715 0.7111,1.106 0.8097,0.809 3.3628,1.028 3.1148,0.266 z m -31.71587,-5.49 c 0.6679,-0.412 0.6661,-0.425 -0.064,-0.445 -0.9729,-0.03 -2.2692,1.016 -3.1333,2.52 l -0.6852,1.193 1.5975,-1.423 c 0.8786,-0.782 1.9069,-1.612 2.2853,-1.845 z m -184.1945,2.208 c 5.65986,-0.289 13.17103,-0.689 16.69131,-0.889 3.52028,-0.2 12.64094,-0.682 20.26823,-1.072 38.81971,-1.987 55.13707,-2.91 55.3447,-3.133 0.126,-0.136 0.38655,-0.967 0.57877,-1.847 0.19232,-0.88 0.46638,-1.88 0.60891,-2.222 0.20169,-0.484 0.0837,-0.622 -0.53362,-0.622 -0.68319,0 -10.15694,0.568 -35.55273,2.133 -3.22686,0.198 -8.58736,0.521 -11.91199,0.717 -3.32474,0.196 -11.24534,0.672 -17.60139,1.058 -16.79381,1.021 -36.60332,2.137 -37.91941,2.137 -0.98195,0 -1.1666,0.146 -1.34441,1.066 -0.11329,0.587 -0.29875,1.547 -0.41205,2.134 -0.24805,1.284 -1.57412,1.223 11.78368,0.54 z m 116.01504,-0.38 c 0.10724,-0.09 -3.20358,-9.211 -6.70491,-18.473 -0.81322,-2.151 -2.43925,-6.631 -3.61341,-9.956 -1.17417,-3.324 -2.30973,-6.259 -2.52351,-6.519 -0.29352,-0.357 -1.00272,-0.414 -2.89878,-0.23 -1.38059,0.134 -2.63912,0.363 -2.79676,0.511 -0.15765,0.148 0.58864,2.891 1.65858,6.098 1.06984,3.206 3.58328,10.95 5.58548,17.208 2.00209,6.258 3.70543,11.499 3.78526,11.645 0.12711,0.235 7.20647,-0.03 7.50805,-0.284 z m 32.19736,-5.227 c 0.3409,-2.592 0.9131,-7.192 1.2716,-10.223 0.637,-5.384 0.6366,-5.527 -0.017,-6.209 -0.4157,-0.433 -0.7857,-0.568 -0.9779,-0.356 -0.1701,0.188 -0.4994,2.662 -0.7318,5.498 -0.2324,2.836 -0.6698,7.362 -0.9719,10.058 -0.432,3.857 -0.4571,5.014 -0.1175,5.423 0.2374,0.286 0.5426,0.52 0.6782,0.52 0.1355,0 0.5253,-2.12 0.8661,-4.711 z m -6.5654,3.86 c 0.4507,-0.542 -0.2377,-2.483 -3.3564,-9.46 -0.9178,-2.055 -1.8275,-4.134 -2.0215,-4.623 l -0.3528,-0.889 -0.3084,0.802 c -0.2079,0.542 -0.1008,1.468 0.3298,2.845 0.8456,2.706 4.7425,11.82 5.0538,11.82 0.1346,0 0.4296,-0.222 0.6555,-0.495 z m 2.2774,-0.837 c 0.085,-0.147 0.025,-1.308 -0.1312,-2.579 -0.9926,-8.049 -1.7588,-15.186 -1.7588,-16.385 0,-1.438 -0.596,-1.857 -1.3508,-0.946 -0.5301,0.638 1.5294,18.671 2.269,19.867 0.2342,0.379 0.7639,0.403 0.9718,0.04 z m 242.47887,-5.428 0.9718,-1.059 -0.083,-8.235 -0.083,-8.236 -3.5558,-1.475 c -1.9557,-0.811 -3.9116,-1.669 -4.3463,-1.907 -2.4622,-1.348 -8.0052,-1.057 -11.5073,0.604 l -1.57,0.745 1.7779,-0.192 c 2.1911,-0.235 10.2749,0.396 11.7783,0.92 1.9059,0.664 2.0034,1.316 1.7175,11.473 -0.2341,8.32 -0.3223,9.253 -0.9501,10.051 -0.6668,0.848 -0.5906,0.835 2.0929,-0.374 1.5318,-0.69 3.2224,-1.732 3.7569,-2.315 z m -2.7374,-4.885 c -0.6053,-1.559 -0.6269,-5.256 -0.039,-6.661 0.817,-1.952 1.2586,-1.132 1.2657,2.35 0.01,4.102 -0.5487,6.058 -1.2268,4.311 z m -393.999,5.958 c 22.08002,-1.397 39.97251,-2.491 46.40365,-2.839 9.75014,-0.526 26.12666,-1.366 38.40303,-1.969 14.0669,-0.69 21.29332,-1.177 21.80949,-1.467 0.228,-0.128 0.74367,-0.528 1.14594,-0.889 0.40228,-0.36 1.29351,-0.937 1.98043,-1.28 l 1.24905,-0.625 -1.8629,-5.512 -1.86289,-5.511 -0.0282,4.711 -0.0282,4.712 h -4.41564 c -2.42867,0 -4.66884,-0.101 -4.97818,-0.216 -1.00957,-0.388 -0.59208,-0.851 0.77098,-0.855 2.18524,0 2.93355,-0.336 2.93355,-1.281 0,-0.611 -0.19897,-0.848 -0.71121,-0.848 -0.70134,0 -0.71112,-0.237 -0.71112,-17.246 0,-13.56 -0.0947,-17.246 -0.4445,-17.245 -0.24443,0 -2.04464,0.311 -4.00027,0.69 -1.95573,0.38 -10.67644,1.743 -19.37931,3.029 -8.70297,1.287 -20.46388,3.057 -26.13543,3.934 -5.67155,0.876 -10.87199,1.67 -11.55649,1.764 -0.6845,0.09 -3.80472,0.572 -6.93381,1.061 -12.79798,2.004 -22.36578,3.406 -27.89592,4.09 -3.21738,0.397 -5.98946,0.861 -6.1603,1.033 -0.17498,0.174 -0.19817,5.301 -0.0534,11.733 0.20795,9.229 0.34966,11.424 0.73773,11.424 0.33897,0 0.48029,0.52 0.48029,1.769 v 1.768 l -1.15562,-0.192 c -0.63562,-0.106 -1.51566,-0.264 -1.95574,-0.353 l -0.80001,-0.161 v -13.328 c 0,-12.901 -0.0222,-13.327 -0.68208,-13.327 -1.87701,0 -1.80706,-0.47 -1.80706,12.127 v 11.697 h 0.75768 c 0.67684,0 0.7347,0.142 0.54157,1.332 -0.25995,1.602 -1.10149,2.355 -2.05955,1.842 -0.36407,-0.195 -0.66202,-0.589 -0.66202,-0.875 0,-0.288 -0.28001,-0.521 -0.62231,-0.521 -0.5826,0 -0.61546,-0.781 -0.51597,-12.268 l 0.10623,-12.268 h -2.15087 c -1.19684,0 -2.15087,-0.157 -2.15087,-0.356 0,-0.195 0.8615,-0.355 1.91431,-0.355 1.68449,0 1.9399,-0.1 2.12859,-0.8 0.11793,-0.44 0.21661,-5.257 0.21933,-10.705 0,-8.469 -0.0695,-9.877 -0.50629,-9.71 -0.28112,0.108 -1.16127,0.371 -1.95573,0.586 l -1.4446,0.389 -0.0816,8.43 -0.0816,8.432 -0.10231,-8.268 c -0.0564,-4.546 -0.2278,-8.267 -0.38111,-8.267 -0.29452,0 -1.15148,35.555 -1.13828,47.226 l 0.0101,6.866 2.40024,-0.205 c 1.32012,-0.112 7.36058,-0.519 13.42322,-0.903 z m 15.46795,-4.27 c 0,-0.747 1.04152,-0.916 7.46722,-1.204 2.05351,-0.09 7.54826,-0.676 12.21065,-1.298 4.96377,-0.662 8.60843,-1 8.79399,-0.814 0.17438,0.175 0.41518,0.808 0.53512,1.408 l 0.21803,1.09 -2.43371,0.218 c -4.43771,0.398 -14.43742,0.927 -20.6575,1.094 -5.79089,0.155 -6.1338,0.127 -6.1338,-0.494 z m 33.06924,-2.132 c 0,-0.508 0.23707,-0.712 0.82975,-0.712 1.07014,0 1.39944,0.346 0.90151,0.946 -0.61687,0.744 -1.73126,0.592 -1.73126,-0.234 z m 5.31272,0.152 c -0.36931,-0.444 -0.34704,-0.648 0.12267,-1.117 0.47333,-0.474 0.67039,-0.494 1.12507,-0.117 0.72785,0.604 0.69539,0.98 -0.12256,1.417 -0.50358,0.27 -0.78792,0.223 -1.12518,-0.183 z m -47.89936,-22.756 c 0.55297,-0.553 52.88772,-7.884 73.34464,-10.275 5.39255,-0.63 5.86709,-0.649 5.86709,-0.24 0,0.17 -1.56011,0.64 -3.46695,1.046 -7.96092,1.695 -17.27199,3.031 -38.84743,5.574 -4.20478,0.496 -10.28526,1.22 -13.51222,1.61 -5.11678,0.619 -22.647,2.487 -23.33685,2.487 -0.13758,0 -0.15935,-0.09 -0.0484,-0.202 z m 225.35655,29.582 c 0,-0.268 -0.1026,-1.002 -0.228,-1.629 -0.1564,-0.782 -0.3185,-0.993 -0.5167,-0.672 -0.5793,0.937 -2.2027,-4.261 -1.7411,-5.574 0.2364,-0.673 0.2582,-0.669 0.5015,0.101 0.1399,0.44 0.4066,0.8 0.5928,0.8 0.186,0 0.2645,-0.36 0.1742,-0.8 -0.091,-0.44 -0.2603,-1.4 -0.3781,-2.131 -0.2083,-1.297 -0.2355,-1.318 -1.0324,-0.796 -1.4932,0.979 -1.717,2.049 -1.1406,5.455 0.2858,1.69 0.4906,3.548 0.455,4.131 -0.055,0.908 0.087,1.091 1.0021,1.291 1.7584,0.384 2.3113,0.343 2.3113,-0.172 z m -39.05587,-0.04 c 0.097,-0.101 -0.039,-1.229 -0.3042,-2.515 -0.6349,-3.088 -2.2431,-14.819 -2.2431,-16.363 0,-1.375 -0.3255,-1.518 -1.2168,-0.534 -0.5851,0.648 -0.5699,0.989 0.3029,6.845 1.4938,10.022 2.0746,12.742 2.7214,12.743 0.3097,0 0.6425,-0.08 0.7398,-0.176 z m 4.5173,-4.535 c 0.6104,-6.986 1.1266,-15.959 0.9358,-16.269 -0.092,-0.148 -0.5465,-0.342 -1.0102,-0.431 l -0.8431,-0.161 -0.2313,5.541 c -0.1271,3.049 -0.3338,7.902 -0.4594,10.787 -0.2212,5.087 -0.2067,5.245 0.4842,5.245 0.6562,0 0.7448,-0.372 1.124,-4.712 z m 192.54337,1.28 c 0.1264,-1.496 0.2299,-5.417 0.2299,-8.712 v -5.991 h -3.1113 c -1.7112,0 -4.4315,-0.105 -6.0449,-0.231 l -2.9336,-0.228 v 8.942 8.942 h 5.8149 5.815 z m -10.5714,-1.383 c -0.3941,-1.026 -0.2556,-11.542 0.152,-11.542 1.2901,0 1.8311,5.783 0.908,9.705 -0.5476,2.328 -0.7422,2.666 -1.06,1.837 z m -5.1661,2.544 c -0.6916,-0.834 -3.5393,-1.641 -5.7865,-1.641 -1.9825,0 -2.0702,-0.04 -2.0702,-0.907 0,-0.5 0.2278,-1.98 0.5062,-3.29 0.9586,-4.509 0.9678,-4.692 0.2396,-4.692 -0.3623,0 -0.8556,-0.238 -1.0964,-0.528 -0.4887,-0.589 -0.012,-0.853 2.8844,-1.6 3.9326,-1.015 3.8667,-0.967 3.8667,-2.741 v -1.614 l -1.9557,0.219 c -1.0756,0.12 -2.804,0.313 -3.8409,0.429 l -1.8852,0.21 0.1087,7.346 c 0.059,4.04 0.1079,7.759 0.1072,8.264 v 0.918 l 4.6784,0.07 c 4.0796,0.07 4.623,0 4.245,-0.448 z m -170.64077,-2.353 c 1.2288,-1.93 2.8721,-6.944 2.5788,-7.869 -0.5985,-1.885 -1.5693,-0.173 -3.506,6.184 -0.5219,1.714 -1.0532,3.394 -1.1807,3.734 -0.4064,1.084 0.9575,-0.24 2.1079,-2.049 z m 156.86727,1.197 1.6498,-0.226 v -7.735 c 0,-9.548 -0.2121,-9.108 4.6226,-9.607 5.5641,-0.573 5.6893,-0.609 5.6893,-1.605 0,-0.673 0.4367,-1.152 1.8668,-2.053 3.1869,-2.004 5.5481,-2.843 7.8451,-2.787 l 2.0669,0.05 -0.1112,-1.144 c -0.092,-0.946 -0.457,-1.373 -2.1029,-2.46 -1.0956,-0.723 -2.3845,-1.782 -2.8644,-2.352 l -0.8726,-1.037 -8.5143,-0.231 c -4.6828,-0.126 -24.7555,-0.255 -44.606,-0.286 l -36.0917,-0.06 -0.094,10.909 c -0.074,8.551 0,10.937 0.3556,11.042 0.2474,0.07 8.815,0.286 19.0393,0.469 l 18.5896,0.334 1.5009,1.142 c 5.4651,4.156 9.9163,6.168 16.136,7.291 2.9018,0.525 12.9818,0.741 15.8953,0.342 z m -64.6678,-15.19 c -0.8708,-2.084 -1.322,-5.107 -1.0627,-7.122 0.2949,-2.292 0.9159,-4.487 1.2695,-4.487 0.3874,0 1.3282,3.06 1.5992,5.2 0.2336,1.845 -0.3304,6.299 -0.9179,7.25 -0.2472,0.4 -0.45,0.207 -0.8881,-0.841 z m 56.1835,-9.487 c -26.0017,-1.057 -49.5526,-2.307 -49.8942,-2.649 -0.092,-0.09 0.055,-0.236 0.3283,-0.32 0.2724,-0.08 13.2964,-0.348 28.942,-0.583 19.9197,-0.3 29.406,-0.317 31.647,-0.06 3.4758,0.401 7.1487,1.455 7.0498,2.024 -0.1041,0.598 -4.3674,1.577 -7.5719,1.738 -1.6685,0.08 -6.394,0.02 -10.501,-0.151 z m 21.5128,-1.41 c 0,-0.683 0.6954,-0.964 1.1822,-0.477 0.2692,0.269 -0.4038,1.189 -0.8702,1.189 -0.1716,0 -0.312,-0.321 -0.312,-0.712 z m 2.4891,17.048 c 0,-4.488 -0.128,-8.159 -0.2845,-8.159 -0.9875,0 -1.1378,1.071 -1.1378,8.096 0,6.937 0.2577,8.94 1.0845,8.429 0.1975,-0.122 0.3378,-3.6 0.3378,-8.366 z m 28.9146,6.907 c 1.858,-0.646 3.2198,-1.625 5.9422,-4.275 l 2.3209,-2.257 11.369,-0.873 c 6.2531,-0.48 12.7005,-0.975 14.3277,-1.1 l 2.9586,-0.228 -0.09,-9.9 c -0.088,-9.69 -0.1054,-9.903 -0.8251,-10.039 -0.4043,-0.08 -13.9165,-0.184 -30.027,-0.239 -22.6154,-0.08 -29.2322,0 -29.0298,0.324 0.1442,0.233 0.9547,0.721 1.8009,1.084 2.5214,1.081 3.0054,1.783 3.0054,4.364 v 2.237 l 1.577,0.421 c 3.2208,0.862 11.2623,4.125 12.1172,4.917 l 0.8848,0.821 v 7.602 c 0,4.182 0.1038,7.707 0.2306,7.834 0.2534,0.253 1.3567,0.03 3.4376,-0.693 z m -31.7593,-4.042 c 0,-2.543 -0.1095,-4.623 -0.2434,-4.623 -0.698,0 -4.3791,1.198 -4.3791,1.426 0,0.146 0.2317,0.458 0.5148,0.692 0.2832,0.235 0.717,1.63 0.9639,3.1 0.3504,2.085 0.6382,2.82 1.311,3.349 1.7052,1.342 1.8328,1.067 1.8328,-3.944 z m -193.43737,3.382 c 0,-1.56 2.073,-7.398 3.4583,-9.739 2.409,-4.071 5.2576,-6.307 9.3919,-7.371 2.3856,-0.614 4.4758,-0.269 7.136,1.179 3.4434,1.874 7.3899,7.194 8.9798,12.105 0.655,2.022 1.2618,2.452 1.253,0.889 -0.01,-1.22 -2.351,-6.542 -3.8256,-8.685 -1.8953,-2.755 -4.3871,-4.947 -7.0996,-6.247 -2.3791,-1.141 -2.7837,-1.225 -5.3337,-1.108 -3.5012,0.161 -6.1858,1.435 -8.6101,4.088 -1.8737,2.051 -4.6106,7.063 -5.4927,10.06 -0.632,2.148 -0.7649,5.714 -0.2129,5.714 0.1955,0 0.3556,-0.398 0.3556,-0.885 z m 51.09127,-0.249 c -0.1135,-0.283 -0.1977,-0.199 -0.2149,0.216 -0.015,0.374 0.069,0.584 0.1868,0.466 0.1181,-0.119 0.1308,-0.425 0.028,-0.682 z m -91.0013,-2.511 c 0.66262,-2.816 3.42933,-8.262 5.32383,-10.48 0.9253,-1.083 2.4852,-2.52 3.4664,-3.196 l 1.7841,-1.225 -1.7779,0.193 c -0.9778,0.107 -2.978,0.289 -4.4448,0.406 -3.69445,0.294 -10.74589,1.195 -10.9502,1.398 -0.0927,0.09 0.0101,0.614 0.22034,1.158 0.89667,2.28 0.87883,3.54 -0.0796,5.634 -1.11802,2.442 -1.12709,2.648 -0.17125,3.862 0.78812,1.002 5.196,4.117 5.82587,4.117 0.20028,0 0.56183,-0.84 0.80344,-1.867 z m -2.40448,-3.074 c -1.12417,-0.313 -1.15914,-1.244 -0.0524,-1.4 1.4197,-0.201 2.54176,0.247 2.54176,1.014 0,0.749 -0.76151,0.867 -2.48904,0.386 z m 1.14353,-5.061 c -0.80455,-0.232 -1.34471,-0.708 -1.73691,-1.53 -0.65225,-1.368 -0.40379,-3.047 0.45086,-3.047 0.74044,0 4.87406,4.159 4.59022,4.618 -0.26913,0.436 -1.71554,0.418 -3.30417,-0.04 z m -8.17652,8.402 c -1.85383,-2.198 -2.19593,-3.537 -2.2044,-8.623 l -0.0101,-4.712 h -3.91146 c -2.89383,0 -3.91056,0.116 -3.90804,0.445 0,0.436 1.93074,8.021 3.07134,12.086 l 0.57836,2.061 3.64093,-0.101 3.64093,-0.09 z m 95.09967,-2.872 c 0.1184,-0.309 -0.038,-0.815 -0.3489,-1.125 -0.465,-0.466 -0.661,-0.484 -1.1154,-0.107 -0.3032,0.252 -0.5512,0.758 -0.5512,1.125 0,0.843 1.6982,0.933 2.0155,0.107 z m -11.9718,-1.751 1.5089,-1.956 -0.8026,-2.146 c -1.65467,-4.425 -5.45847,-8.686 -9.77367,-10.949 -1.5074,-0.791 -2.2378,-0.934 -4.8004,-0.941 -1.6623,0 -3.6625,0.132 -4.4448,0.303 l -1.4223,0.311 2.2219,0.466 c 3.1756,0.666 5.5657,2.083 8.6606,5.134 2.7801,2.74 5.4845,6.835 6.6357,10.045 0.3332,0.929 0.6287,1.689 0.6568,1.689 0.028,0 0.7301,-0.88 1.55987,-1.956 z m -34.78327,-2.311 c 2.0874,-5.317 5.9229,-10.202 9.4921,-12.089 0.7592,-0.401 1.0375,-0.687 0.6769,-0.696 -1.0606,-0.03 -19.5313,2.515 -20.2772,2.792 -0.6456,0.239 -0.5766,0.37 0.7452,1.416 2.6889,2.13 6.3412,7.622 7.7142,11.599 0.1914,0.555 0.2846,0.594 0.4236,0.178 0.098,-0.294 0.6494,-1.733 1.2252,-3.2 z m -71.88878,-2.4 c 0,-4.073 -0.15865,-6.232 -0.58945,-7.913 -0.37073,-1.447 -0.50186,-2.795 -0.35037,-3.602 0.34946,-1.863 2.09967,-4.075 4.11427,-5.2 1.47877,-0.826 1.72582,-1.112 1.60748,-1.865 -0.0766,-0.489 -0.30591,-10.489 -0.50881,-22.223 -0.59772,-34.571 -0.69771,-37.25 -1.38312,-37.055 -6.18087,1.764 -17.81416,4.664 -43.07398,10.74 -24.18483,5.817 -81.0714,19.972 -81.33841,20.239 -0.0484,0.05 0.0383,2.475 0.19383,5.393 l 0.28202,5.305 0.29211,-4.164 0.292,-4.163 1.6473,-0.533 c 5.05509,-1.634 25.71823,-6.621 46.45083,-11.211 7.04055,-1.559 21.12166,-4.845 31.29141,-7.303 10.16964,-2.458 20.57051,-4.938 23.11287,-5.51 6.82314,-1.539 17.10497,-3.265 18.6042,-3.125 l 1.30853,0.122 -1.06672,0.461 c -2.26719,0.977 -24.04624,6.272 -57.96014,14.089 -3.71582,0.855 -10.19636,2.432 -14.40114,3.501 -4.20478,1.071 -8.08509,2.043 -8.62294,2.163 -0.97277,0.217 -0.97781,0.234 -0.97781,3.234 0,1.659 -0.0554,3.016 -0.12398,3.016 -0.24483,0 -8.24607,1.795 -8.85457,1.985 -0.5574,0.176 -0.62221,-0.102 -0.62221,-2.672 0,-1.578 -0.12005,-2.868 -0.2667,-2.867 -0.14666,0 -2.58692,0.466 -5.42269,1.036 -2.83578,0.569 -7.79612,1.47 -11.02308,2.004 -3.22686,0.533 -6.18712,1.087 -6.57831,1.231 -0.65577,0.242 -0.70224,0.532 -0.59701,3.721 0.11037,3.343 0.14001,3.452 0.88902,3.286 1.11409,-0.249 8.86616,-1.783 17.30938,-3.426 9.84851,-1.916 42.65134,-8.689 47.29267,-9.763 2.0535,-0.476 6.21383,-1.442 9.24515,-2.147 11.15411,-2.597 21.38716,-4.824 30.40239,-6.619 5.08482,-1.012 9.44523,-2.003 9.68966,-2.204 0.25925,-0.213 0.45922,-1.272 0.47989,-2.543 0.0615,-3.765 0.60084,-4.327 0.64035,-0.668 0.0252,2.372 0.15936,3.291 0.47989,3.295 0.31115,0 0.32597,0.08 0.0494,0.267 -0.25854,0.17 -0.48916,3.213 -0.66677,8.794 -0.50024,15.721 -0.77773,16.973 -0.83791,3.782 -0.0524,-11.447 -0.0947,-12.21 -0.67805,-12.059 -0.3422,0.09 -5.14258,1.095 -10.66747,2.235 l -10.04526,2.073 v 12.609 12.609 l 1.51122,-0.243 c 0.83116,-0.134 4.12555,-0.541 7.32087,-0.906 3.19521,-0.366 5.91517,-0.77 6.04429,-0.899 0.12922,-0.129 0.31509,-4.948 0.41316,-10.709 0.14787,-8.684 0.26751,-10.529 0.69982,-10.796 1.04797,-0.646 1.43422,0.305 1.43422,3.535 0,1.705 0.10473,6.46 0.23263,10.567 l 0.23254,7.468 3.55293,-0.171 c 2.60698,-0.125 3.48621,-0.06 3.30236,0.235 -0.13789,0.223 -0.44128,0.403 -0.67422,0.401 -0.23294,0 -1.74356,0.342 -3.35709,0.765 l -2.93355,0.77 v 16.812 16.811 l 0.80012,0.113 c 0.83337,0.119 0.90443,0.541 0.42253,2.514 -0.22185,0.909 -0.16036,0.978 0.86946,0.978 h 1.10815 z m -103.95366,-43.014 c -0.12458,-1.335 -0.0766,-2.535 0.10855,-2.72 0.35138,-0.352 7.81134,-1.972 9.16795,-1.992 0.75364,-0.01 0.80011,0.131 0.80011,2.445 v 2.457 l -4.65412,1.099 c -2.5598,0.605 -4.7768,1.099 -4.92678,1.099 -0.14998,0 -0.37304,-1.074 -0.49571,-2.388 z m 26.78898,-6.401 v -2.823 l 4.88928,-1.135 c 2.68912,-0.625 5.08936,-1.133 5.33379,-1.127 0.3172,0 0.4445,0.806 0.4445,2.798 v 2.792 l -4.53367,0.968 c -2.49358,0.533 -4.89381,1.055 -5.33379,1.158 -0.77844,0.185 -0.80011,0.114 -0.80011,-2.631 z m 14.22333,-3.081 v -3.037 l 1.33352,-0.356 c 3.05955,-0.818 7.42126,-1.8 8.00063,-1.803 0.54601,0 0.62221,0.384 0.62221,3.148 v 3.151 l -4.00026,0.775 c -2.20016,0.426 -4.44034,0.861 -4.97818,0.967 l -0.97792,0.192 z m 13.68992,0.551 c -0.0978,-0.101 -0.1777,-1.658 -0.1777,-3.468 v -3.289 l 4.61099,-1.096 c 2.53611,-0.603 4.83666,-1.096 5.11254,-1.096 0.38292,0 0.54217,0.777 0.67412,3.289 0.0947,1.809 0.0746,3.396 -0.0454,3.527 -0.30229,0.328 -9.95515,2.352 -10.17449,2.133 z m 18.24598,-6.319 c -0.0363,-1.447 -0.0766,-3.066 -0.0887,-3.601 -0.0212,-0.941 0.1015,-1.002 4.21213,-2.108 2.32888,-0.626 4.60907,-1.233 5.06709,-1.348 l 0.83267,-0.21 v 3.875 3.874 l -0.97782,0.201 c -0.53784,0.112 -2.77802,0.595 -4.97818,1.075 l -4.00037,0.872 z m 153.4305,61.573 c 0.4115,-0.412 0.4457,-0.89 0.1719,-2.4 -0.1881,-1.038 -0.4059,-1.952 -0.4841,-2.031 -0.078,-0.08 -0.4778,0.616 -0.8882,1.543 -1.1123,2.515 -0.3236,4.412 1.2004,2.888 z m -43.08757,-1.176 c 0.4423,-0.564 0.4297,-0.576 -0.1342,-0.134 -0.3423,0.268 -0.6223,0.549 -0.6223,0.622 0,0.293 0.292,0.104 0.7565,-0.488 z m 75.84857,-4.89 c 0.5168,-0.678 1.5444,-1.719 2.2838,-2.312 l 1.3441,-1.081 -1.0598,-2.138 c -2.1106,-4.257 -1.1988,-9.467 2.1773,-12.438 0.8803,-0.775 1.4235,-1.409 1.207,-1.409 -2.6817,0 -7.5202,6.697 -8.6061,11.912 -0.529,2.54 -0.6372,7.708 -0.2228,10.633 l 0.2975,2.098 0.8198,-2.017 c 0.4508,-1.109 1.2425,-2.571 1.7592,-3.248 z m -42.5541,-0.617 c 2.7354,-4.683 4.9853,-7.598 7.0703,-9.16 4.2149,-3.159 5.3187,-4.851 2.1632,-3.314 -2.7667,1.346 -5.1566,3.577 -7.3885,6.896 -2.3221,3.453 -4.6046,7.896 -4.6046,8.963 0,1.083 0.5283,0.436 2.7596,-3.385 z m -2.1391,-2.938 c 0.9819,-1.858 1.6039,-3.375 1.3824,-3.371 -0.2216,0 -2.0029,0.239 -3.9586,0.522 -1.95577,0.284 -3.69447,0.52 -3.86387,0.526 -0.1695,0 0.2631,0.645 0.9614,1.417 0.6984,0.773 1.69817,2.053 2.22217,2.845 0.5239,0.791 1.0692,1.439 1.2119,1.439 0.1427,0 1.0627,-1.52 2.0446,-3.378 z m 63.5597,3.052 c 0.4823,-0.189 -0.1017,-0.335 -1.8286,-0.459 -4.3717,-0.312 -7.3878,-2.235 -9.0637,-5.778 -1.9287,-4.077 -0.9335,-8.379 2.4317,-10.513 2.3515,-1.492 3.7889,-1.854 6.7918,-1.713 2.1166,0.101 2.4698,0.04 1.974,-0.319 -1.6965,-1.236 -5.6647,-0.971 -8.8335,0.59 -6.4882,3.197 -7.7616,9.546 -2.9178,14.548 2.4169,2.496 5.6953,3.871 9.3152,3.906 0.7823,0 1.7411,-0.11 2.1309,-0.262 z m 3.3361,-1.674 1.1113,-0.222 v -6.646 -6.646 l -1.3335,-0.651 c -0.7798,-0.38 -2.4618,-0.721 -4.0511,-0.821 -2.3693,-0.147 -2.97,-0.05 -4.6856,0.732 -5.7924,2.652 -5.3151,10.379 0.8037,13.011 2.5859,1.113 6.1174,1.651 8.1552,1.243 z m -136.23037,-3.691 c 13.8408,-1.681 19.3332,-2.376 26.3996,-3.341 3.618,-0.493 8.5785,-1.135 11.0231,-1.426 25.5213,-3.035 34.83027,-4.338 43.48827,-6.092 3.2859,-0.665 6.1661,-1.325 6.4005,-1.465 0.2345,-0.14 1.2766,-0.983 2.3159,-1.875 l 1.8897,-1.62 -0.9316,-0.802 c -1.2047,-1.036 -2.2749,-1.026 -10.1028,0.09 -8.0527,1.152 -32.66517,4.435 -46.73927,6.234 -6.0327,0.771 -13.1532,1.721 -15.8234,2.111 -4.0911,0.599 -16.653,2.256 -27.07878,3.573 -3.46535,0.438 -4.57097,0.683 -4.80764,1.066 -0.27527,0.445 0.79175,2.853 1.68631,3.806 0.98749,1.051 1.55547,1.039 12.28011,-0.265 z m -10.93671,-1.747 c 0.29341,-0.169 3.65363,-0.729 7.46731,-1.246 10.1807,-1.38 21.2984,-2.993 25.9575,-3.767 11.8418,-1.966 23.693,-3.401 38.0475,-4.604 4.5959,-0.386 11.79647,-1.105 16.00127,-1.599 9.0385,-1.061 8.3691,-1.028 7.8395,-0.39 -0.5669,0.684 -4.0396,1.809 -8.1951,2.658 -3.5425,0.724 -7.9102,1.225 -23.46847,2.692 -10.9975,1.038 -14.643,1.486 -25.9576,3.194 -10.8292,1.634 -15.5837,2.18 -24.795,2.844 -8.39499,0.606 -13.7315,0.695 -12.89691,0.218 z m -22.93508,-1.97 c 8.50622,-1.407 51.03299,-7.586 73.25019,-10.642 6.4538,-0.888 16.3746,-2.258 22.0462,-3.045 5.67147,-0.786 13.59207,-1.849 17.60137,-2.363 4.0092,-0.515 7.3267,-0.967 7.3721,-1.007 0.045,-0.04 -0.1072,-0.576 -0.3395,-1.192 -0.2322,-0.615 -0.3141,-1.226 -0.182,-1.359 0.132,-0.132 1.965,-0.436 4.0731,-0.676 2.1082,-0.241 3.1129,-0.45 2.2329,-0.467 -2.1319,-0.04 -3.6752,0.171 -21.5129,2.926 -26.81397,4.14 -65.32877,9.782 -93.87398,13.749 -10.95756,1.523 -13.33321,2.072 -14.64597,3.385 -1.04263,1.042 -1.0519,1.631 -0.0222,1.4 0.44007,-0.101 2.24017,-0.418 4.00036,-0.709 z m 101.34126,-0.03 c 5.3631,-0.843 5.7505,-0.957 6.7561,-1.995 l 1.0667,-1.1 -1.4223,0.221 c -0.7823,0.123 -4.7788,0.712 -8.88127,1.31 -4.1024,0.596 -7.5168,1.144 -7.5876,1.214 -0.3116,0.312 2.0062,1.224 3.1345,1.233 0.6846,0 3.8048,-0.391 6.93387,-0.883 z m -219.92838,-9.195 c 0,-5.448 -0.0333,-5.549 -1.81734,-5.549 -0.65628,0 -0.68723,0.245 -0.59318,4.708 l 0.0988,4.708 1.06672,0.228 1.06682,0.227 -1.15572,0.04 c -1.56253,0.06 -1.48028,0.753 0.0887,0.753 h 1.24462 z m 3.66411,-5.372 c -0.16571,-7.037 -0.11743,-9.422 0.1905,-9.422 0.30239,0 0.41235,2.522 0.41235,9.46 v 9.462 l 0.80002,-0.187 c 1.14433,-0.267 14.56986,-2.536 22.31296,-3.77 3.61805,-0.578 9.81848,-1.573 13.77882,-2.213 l 7.20052,-1.162 v -11.157 -11.158 l -1.15562,0.233 c -2.63721,0.531 -2.40014,-0.577 -2.40014,11.212 v 10.63 l -1.33342,0.351 c -1.81018,0.475 -7.54533,1.452 -8.53404,1.453 h -0.80011 v -10.5 c 0,-11.663 0.10886,-11.183 -2.3958,-10.591 l -1.33776,0.317 -0.1778,10.828 -0.17781,10.828 -3.20025,0.599 c -1.76019,0.33 -3.88032,0.701 -4.71147,0.826 l -1.51123,0.226 v -10.512 c 0,-11.451 0.14535,-10.735 -2.08908,-10.289 l -1.11117,0.223 v 10.566 10.567 l -4.85803,0.769 c -2.67189,0.423 -4.90672,0.721 -4.96629,0.661 -0.0595,-0.06 -0.21903,-4.7 -0.3544,-10.313 -0.21691,-8.992 -0.31337,-10.205 -0.8119,-10.204 -0.75234,0 -8.93954,1.745 -9.32861,1.986 -0.37617,0.233 -0.39693,7.629 -0.0232,8.217 0.17841,0.281 0.44905,0.313 0.79457,0.09 0.88237,-0.558 1.26146,-0.39 1.83085,0.813 0.53573,1.131 0.55226,1.065 0.80576,-3.182 0.26489,-4.437 0.61697,-5.41 1.79426,-4.958 0.42727,0.164 0.53794,0.893 0.53794,3.539 0,5.934 0.45943,15.18 0.75425,15.18 0.15785,0 0.18718,-4.24 0.0655,-9.423 z m 123.10135,7.495 c 3.12919,-0.474 10.4309,-1.54 16.22613,-2.371 l 10.53662,-1.509 0.1585,-13.72 c 0.088,-7.545 0.1054,-13.787 0.04,-13.868 -0.065,-0.08 -4.9576,0.846 -10.8729,2.061 -5.91528,1.217 -13.79526,2.805 -17.51118,3.532 l -6.75601,1.319 0.0968,7.108 c 0.0534,3.91 0.19322,9.717 0.31075,12.905 l 0.21358,5.797 0.93387,-0.197 c 0.51366,-0.107 3.49407,-0.583 6.62316,-1.057 z m -5.59949,-3.672 c -0.0716,-0.147 -0.0222,-0.827 0.10997,-1.512 0.21439,-1.112 0.24493,-1.139 0.28676,-0.26 0.0393,0.828 0.17509,0.958 0.84689,0.812 2.8014,-0.61 15.31192,-3.01 16.67931,-3.2 1.65496,-0.229 1.65616,-0.229 2.08001,1.056 0.23334,0.706 0.3682,1.331 0.29987,1.389 -0.2279,0.19 -17.16878,1.992 -18.68262,1.987 -0.81957,0 -1.54872,-0.126 -1.62019,-0.272 z m 26.62294,-3.48 c -0.1208,-0.316 0.02,-0.636 0.333,-0.756 0.6957,-0.266 1.0132,0.05 0.7448,0.754 -0.2699,0.703 -0.8081,0.704 -1.0778,0 z m 251.47207,6.292 c -0.5889,-1.485 -14.704,-29.565 -14.8545,-29.551 -0.1092,0.01 -0.7272,0.822 -1.3735,1.802 l -1.175,1.784 1.5982,2.731 c 0.879,1.503 3.9174,6.972 6.7521,12.154 2.8346,5.183 5.397,9.864 5.6941,10.401 0.4539,0.821 0.7746,0.978 2.0087,0.978 0.8076,0 1.4151,-0.134 1.3499,-0.299 z m 29.9148,-1.035 c 0.2064,-0.733 0.4684,-1.895 0.5822,-2.583 0.1921,-1.161 0.1102,-1.304 -1.1589,-2.022 -2.3737,-1.342 -4.2519,-3.553 -13.2318,-15.574 -2.7759,-3.715 -5.4487,-7.275 -5.9396,-7.911 l -0.8925,-1.157 h -10.2968 c -5.6632,0 -10.2968,0.04 -10.2968,0.09 0,0.05 1.4932,2.97 3.3181,6.489 l 3.318,6.399 10.8866,-0.137 10.8865,-0.136 0.2138,0.851 c 0.1177,0.469 0.1661,2.051 0.1077,3.515 l -0.1062,2.663 -9.3333,0.09 -9.3333,0.09 2.6683,5.328 2.6684,5.327 h 12.782 12.7821 z m -121.7251,0.702 c -0.1203,-0.195 -0.8189,-0.467 -1.5525,-0.604 -4.7541,-0.892 -23.2811,-7.532 -29.2542,-10.485 -4.4326,-2.191 -3.0231,-2.203 -17.6014,0.159 -5.6716,0.92 -11.992,1.862 -14.0455,2.095 l -3.7337,0.422 1.5095,1.013 c 1.8088,1.213 1.294,1.24 17.5142,-0.909 5.965,-0.79 11.6454,-1.371 12.6232,-1.29 3.4852,0.287 12.1806,4.601 16.5274,8.2 l 1.8098,1.498 8.2109,0.128 c 5.3871,0.08 8.1357,0 7.9923,-0.227 z m 11.7469,-0.225 c -0.1059,-0.276 -2.8817,-3.809 -6.1684,-7.852 -5.6618,-6.963 -6.0017,-7.311 -6.4672,-6.61 -0.4188,0.631 -0.8539,0.74 -2.9495,0.74 -2.9327,0 -3.0147,-0.371 1.1445,5.188 3.7535,5.015 4.3544,5.64 6.912,7.184 1.6382,0.99 2.67,1.342 4.4447,1.514 1.2713,0.124 2.5285,0.251 2.7939,0.281 0.2795,0.03 0.4015,-0.155 0.29,-0.445 z m 7.6363,0.146 h 1.7725 l -4.0064,-5.245 c -2.2035,-2.885 -6.4243,-8.365 -9.3794,-12.178 -6.637,-8.566 -6.5404,-8.426 -8.5194,-12.35 -1.5064,-2.986 -1.7162,-3.237 -2.8981,-3.459 -0.7008,-0.131 -1.3651,-0.148 -1.4763,-0.04 -0.2997,0.299 1.9515,6.076 3.4036,8.732 2.1643,3.961 5.9181,9.254 11.3762,16.044 2.8899,3.595 5.6271,7.067 6.0825,7.714 0.5191,0.739 1.0229,1.104 1.3502,0.979 0.2873,-0.111 1.3198,-0.201 2.2946,-0.201 z m 46.2007,-0.866 c 0.5898,-0.672 1.7781,-1.49 2.6406,-1.82 2.2794,-0.871 3.8733,-0.467 5.8124,1.472 l 1.5695,1.57 h 4.5758 c 2.5166,0 4.5758,-0.05 4.5758,-0.122 0,-0.07 -1.5357,-2.987 -3.4125,-6.489 -1.8768,-3.503 -4.7066,-8.806 -6.2884,-11.786 l -2.8761,-5.417 -2.3424,2.261 c -4.3958,4.244 -10.9745,7.835 -17.261,9.422 -8.3267,2.103 -18.7855,1.819 -26.4808,-0.719 -5.2454,-1.73 -10.3442,-4.592 -14.7668,-8.287 -0.9779,-0.816 -2.4177,-1.955 -3.1996,-2.531 -1.7521,-1.289 -2.2138,-1.966 6.5991,9.678 3.8254,5.053 7.7197,10.27 8.6541,11.589 l 1.6987,2.401 h 19.7145 19.7146 z m 5.8396,0.866 c -0.1208,-0.195 -0.6009,-0.356 -1.0667,-0.356 -0.4658,0 -0.9458,0.161 -1.0668,0.356 -0.131,0.212 0.2997,0.356 1.0668,0.356 0.7671,0 1.1978,-0.144 1.0667,-0.356 z m -129.9658,-1.796 c 11.9903,-1.584 30.4964,-3.14 31.3148,-2.635 0.1828,0.113 0.3321,0.06 0.3321,-0.115 0,-0.438 -5.1656,-2.815 -6.9924,-3.217 -1.1667,-0.257 -4.0345,0.04 -13.5122,1.4 -6.6172,0.948 -12.2352,1.729 -12.4845,1.733 -0.2493,0 -0.6205,0.447 -0.8248,0.984 -0.2044,0.538 -0.6252,1.258 -0.9352,1.601 -0.6743,0.745 -0.6625,0.746 3.1022,0.249 z m -88.71767,-1.819 c 0.09,-0.09 0.2643,-2.633 0.3888,-5.652 l 0.2262,-5.489 -1.3744,-0.721 -1.3744,-0.721 0.1057,-2.569 c 0.098,-2.386 0.054,-2.568 -0.6222,-2.568 -0.7086,0 -0.7281,0.184 -0.7281,6.882 0,3.785 -0.1052,7.887 -0.2337,9.118 l -0.2338,2.236 1.8417,-0.177 c 1.013,-0.101 1.9148,-0.25 2.0042,-0.339 z m 142.85647,-2.697 c -1.1415,-1.516 -2.6287,-3.621 -3.3051,-4.681 -0.6764,-1.058 -1.3318,-2.078 -1.4565,-2.267 -0.1373,-0.207 -3.6588,-0.317 -8.9276,-0.278 -4.7855,0.03 -9.1291,-0.04 -9.6527,-0.174 l -0.9518,-0.239 0.1009,-3.603 0.1008,-3.603 6.6672,0.13 c 3.667,0.07 6.6672,0.03 6.6672,-0.09 0,-0.118 -0.52,-0.91 -1.1556,-1.758 -0.6356,-0.849 -1.6509,-2.26 -2.2562,-3.136 -0.8946,-1.295 -1.5032,-1.74 -3.2521,-2.378 -2.1917,-0.799 -6.9855,-3.723 -7.8696,-4.801 -0.3463,-0.422 -1.0448,-0.594 -2.405,-0.594 -1.0543,0 -2.2108,-0.184 -2.5697,-0.408 -0.9606,-0.6 -2.6773,-0.1 -2.347,0.689 0.1405,0.334 1.7587,4.585 3.596,9.446 1.8373,4.862 3.503,9.142 3.7016,9.513 0.6991,1.307 7.0114,4.01 19.8914,8.52 3.8136,1.335 7.061,2.436 7.2166,2.446 0.1554,0.01 -0.6513,-1.222 -1.7928,-2.738 z m -133.16497,1.29 5.4249,-0.782 -5.4249,-3.239 c -2.9837,-1.782 -5.8649,-3.535 -6.4027,-3.896 l -0.9779,-0.655 v 4.869 4.87 l 0.9779,-0.193 c 0.5378,-0.106 3.419,-0.544 6.4027,-0.974 z m -99.89043,-2.618 c 5.34618,-0.881 9.86655,-1.692 10.04526,-1.802 0.18566,-0.115 0.32476,-5.369 0.32476,-12.269 v -12.069 h -0.75596 c -0.41588,0 -2.16569,0.33 -3.88849,0.735 -2.99049,0.702 -3.1434,0.785 -3.37341,1.832 -0.13255,0.604 -0.12418,5.865 0.0181,11.693 l 0.25945,10.596 -0.84144,0.188 c -1.95916,0.437 -8.56448,1.624 -9.03802,1.624 -0.43735,0 -0.51587,-1.466 -0.5192,-9.689 0,-10.024 -0.16328,-12.358 -0.84264,-12.355 -0.21893,0 -0.99808,0.168 -1.73147,0.372 l -1.33342,0.371 v 11.125 c 0,6.118 0.10382,11.228 0.23062,11.355 0.1268,0.127 0.56687,0.155 0.97782,0.06 0.41104,-0.09 5.12151,-0.889 10.46769,-1.769 z m 115.80063,0.522 c 23.7318,-3.466 33.50957,-5.029 30.2246,-4.829 -2.5919,0.157 -45.677,-0.457 -46.9371,-0.669 -0.8707,-0.147 -0.6421,0.09 1.2446,1.306 5.5422,3.563 8.7128,5.24 9.6007,5.08 0.489,-0.09 3.1292,-0.489 5.8672,-0.888 z m 228.81797,-5.861 v -0.889 h -9.0674 c -7.9076,0 -9.0674,0.07 -9.0674,0.545 0,0.999 1.5405,1.187 9.8675,1.211 l 8.2673,0.02 z m -190.2372,-0.891 c 34.1266,-0.255 39.7827,-0.372 43.0256,-0.892 2.2784,-0.365 4.5451,-0.515 5.8157,-0.386 1.8868,0.19 2.0574,0.152 1.8189,-0.411 -0.6125,-1.444 -5.1455,-15.216 -5.1455,-15.632 0,-0.251 -0.3425,-0.456 -0.7612,-0.456 -0.7636,0 -18.1623,2.713 -49.0205,7.645 -9.09407,1.452 -23.33517,3.694 -31.64687,4.98 -17.4497,2.7 -23.4311,3.683 -24.1797,3.969 -0.3554,0.137 0.059,0.489 1.2445,1.055 1.7701,0.846 1.8167,0.849 10.6676,0.636 4.8892,-0.118 26.5709,-0.347 48.18147,-0.508 z m 132.1971,-1.637 c 11.58,-2.048 21.2787,-9.122 27.0658,-19.742 l 1.4786,-2.713 -2.2737,-0.244 c -1.9579,-0.21 -2.3295,-0.366 -2.6758,-1.126 -0.2211,-0.485 -0.402,-1.098 -0.402,-1.361 0,-0.633 -0.8002,-0.911 -2.607,-0.906 -1.443,0 -1.5131,0.06 -2.6544,2.138 -3.1015,5.646 -10.1202,10.766 -17.015,12.41 l -1.8304,0.436 -0.1277,2.81 c -0.1053,2.322 -0.2641,2.947 -0.9128,3.596 -0.7647,0.765 -0.8041,0.768 -1.5078,0.131 -0.6306,-0.571 -1.0487,-1.653 -2.1343,-5.524 -0.2174,-0.775 -0.5176,-0.923 -2.3475,-1.153 -1.1541,-0.146 -2.8279,-0.479 -3.7196,-0.74 l -1.6213,-0.476 -1.0218,2.104 c -1.0664,2.196 -2.2952,3.334 -3.2173,2.98 -0.9986,-0.384 -1.2068,-1.754 -0.6836,-4.501 0.2736,-1.435 0.4599,-2.628 0.4141,-2.65 -0.9303,-0.434 -3.6404,-2.436 -4.9262,-3.639 l -1.6792,-1.57 -1.4911,0.941 c -2.9931,1.889 -5.3214,2.184 -5.3214,0.672 0,-0.964 1.3611,-3.22 2.598,-4.305 l 1.2176,-1.07 -0.841,-1.386 c -0.4625,-0.763 -1.2662,-2.466 -1.7861,-3.787 l -0.9452,-2.399 h -2.5316 c -5.202,0 -5.5988,-2.802 -0.6082,-4.294 0.8515,-0.255 1.6016,-0.633 1.6669,-0.841 0.065,-0.208 0.1749,-2.033 0.2436,-4.058 l 0.1251,-3.68 -2.249,-1.062 c -1.2369,-0.585 -2.5044,-1.453 -2.8166,-1.93 -0.527,-0.804 -0.5198,-0.92 0.1014,-1.61 0.602,-0.671 0.946,-0.726 3.4249,-0.559 1.9536,0.132 2.7572,0.07 2.7605,-0.224 0,-0.225 0.776,-1.966 1.7186,-3.868 l 1.7138,-3.457 -0.9815,-0.941 c -1.4175,-1.357 -2.632,-4.305 -2.0589,-4.995 0.5951,-0.717 1.8291,-0.378 4.1315,1.137 1.0238,0.673 2.0444,1.223 2.2682,1.223 0.2238,0 1.0206,-0.554 1.7707,-1.231 0.75,-0.679 2.183,-1.647 3.1843,-2.155 1.2087,-0.613 1.7566,-1.09 1.6301,-1.419 -0.1048,-0.274 -0.3883,-1.454 -0.6301,-2.625 -0.5059,-2.449 -0.095,-3.948 1.0828,-3.948 0.8958,0 2.7846,2.29 3.3002,4 0.4536,1.505 0.4073,1.494 3.3116,0.794 1.1735,-0.284 2.7874,-0.519 3.5865,-0.522 h 1.4529 l 0.5734,-2.062 c 0.6125,-2.203 1.7667,-3.983 2.5833,-3.983 0.9653,0 1.6944,1.735 1.728,4.113 l 0.032,2.287 2.3113,0.761 c 8.1424,2.683 14.2073,8.114 18.015,16.131 1.2548,2.643 1.2771,2.666 2.6484,2.666 h 1.3828 v -1.56 -1.559 l 1.952,-0.244 c 1.0736,-0.134 2.2737,-0.141 2.6669,-0.02 0.9648,0.305 0.9162,0 -0.5503,-3.435 -2.8453,-6.668 -5.7297,-10.87 -10.6226,-15.474 -4.9356,-4.644 -10.3262,-7.656 -17.8035,-9.945 -2.9804,-0.912 -3.6398,-0.981 -9.6008,-0.989 -8.0577,-0.01 -11.2428,0.749 -17.957,4.283 -9.7075,5.11 -16.8716,14.357 -19.6651,25.382 -0.6475,2.557 -0.7658,4.039 -0.7658,9.601 0,5.595 0.1165,7.04 0.7793,9.662 3.3522,13.265 12.5497,24.201 24.6438,29.302 7.3735,3.11 14.7477,3.886 23.019,2.423 z m -363.05969,-0.948 1.51122,-0.405 v -3.638 -3.637 l -1.33342,0.205 c -2.50698,0.385 -2.57804,0.495 -2.57804,4.001 0,1.737 -0.10775,3.439 -0.23949,3.783 -0.19373,0.505 -0.10876,0.573 0.44451,0.361 0.37617,-0.146 1.36406,-0.447 2.19522,-0.67 z m 311.48469,-0.504 c 0.2173,-0.653 -1.31,-0.766 -13.328,-0.985 -10.9267,-0.199 -11.112,-0.191 -11.112,0.506 0,0.672 0.2825,0.713 5.6005,0.819 11.6201,0.231 18.692,0.104 18.8395,-0.34 z m -135.91537,-2.238 c 9.0437,-1.611 30.6227,-5.35 50.31517,-8.716 26.5449,-4.539 42.6669,-7.344 51.8859,-9.026 0.6684,-0.122 1.29,-0.446 1.3813,-0.72 0.2262,-0.678 -1.0571,-0.509 -17.2904,2.285 -12.772,2.198 -74.16527,12.435 -88.42547,14.744 -8.268,1.34 -8.0006,1.26 -8.0006,2.386 0,0.837 0.092,0.89 1.1557,0.674 0.6356,-0.129 4.6759,-0.861 8.9784,-1.627 z m 134.51497,-1.694 c -0.072,-0.146 -0.8263,-1.667 -1.6741,-3.377 l -1.5414,-3.112 h -4.4214 c -3.2529,0 -4.3544,0.109 -4.1676,0.41 1.4899,2.411 4.2797,5.861 4.8879,6.044 1.0848,0.327 7.0769,0.358 6.9166,0.03 z m -139.19267,-3.179 5.9898,-0.609 -0.2473,-2.309 c -0.3546,-3.31 -0.2563,-9.16 0.2036,-12.125 0.2173,-1.4 0.3408,-2.59 0.2745,-2.643 -0.067,-0.05 -3.1041,0.545 -6.7508,1.331 l -6.6302,1.428 -0.2108,1.275 c -0.116,0.701 -0.2126,4.195 -0.2147,7.764 v 6.489 h 0.8 c 0.4401,0 3.4955,-0.27 6.7899,-0.605 z m 8.8725,-6.599 c 0.1359,-3.963 0.4289,-6.774 0.9331,-8.952 0.4043,-1.744 0.6423,-3.264 0.5288,-3.377 -0.4678,-0.466 -1.5519,1.571 -2.1169,3.978 -0.658,2.803 -1.1093,10.801 -0.725,12.851 0.1321,0.703 0.4518,1.278 0.7111,1.278 0.3635,0 0.5161,-1.319 0.6689,-5.778 z m -50.30722,4.552 c 5.23531,-1.324 12.48985,-2.909 22.05513,-4.818 4.76109,-0.949 8.70679,-1.779 8.76849,-1.842 0.2185,-0.223 0.9818,-53.654 0.7695,-53.867 -0.255,-0.255 -13.16078,3.6 -26.90614,8.036 l -9.77856,3.156 0.0907,10.968 c 0.24443,29.426 0.50488,39.238 1.04172,39.238 0.28394,0 2.06529,-0.392 3.95874,-0.871 z m 2.08616,-6.523 c -0.50781,-0.562 -0.60729,-2.649 -0.82451,-17.309 l -0.24705,-16.67 -1.18626,-1.041 c -2.18453,-1.918 -2.63983,-1.691 12.63006,-6.289 4.56764,-1.376 8.74007,-2.501 9.27207,-2.501 0.92328,0 2.51686,1.255 2.51091,1.978 0,0.183 -0.66001,0.708 -1.46315,1.167 l -1.46042,0.834 0.21358,4.322 c 0.37476,7.584 0.67816,30.296 0.41568,31.123 -0.13909,0.438 -0.67583,0.958 -1.19261,1.154 -0.70395,0.268 -17.45271,3.87 -17.99337,3.87 -0.0534,0 -0.35732,-0.288 -0.67493,-0.638 z m 8.79439,-3.111 c 4.12304,-0.887 7.80227,-1.706 8.17612,-1.819 0.66142,-0.201 0.67341,-0.674 0.44561,-17.48 -0.12891,-9.5 -0.36558,-17.405 -0.52605,-17.566 -0.3429,-0.343 -7.90659,2.002 -13.17475,4.084 l -3.68589,1.458 0.21258,3.401 c 0.11692,1.87 0.31791,9.282 0.44662,16.47 0.12882,7.186 0.31852,13.067 0.42173,13.067 0.10322,0 3.561,-0.727 7.68403,-1.615 z m -6.34516,-2.068 c -0.23214,-1.861 -0.83348,-28.793 -0.64822,-29.025 0.32738,-0.412 7.04922,-2.408 7.3003,-2.168 0.31811,0.303 0.18789,30.796 -0.13284,31.116 -0.11592,0.116 -1.58884,0.512 -3.27323,0.88 l -3.06247,0.669 z m 8.91554,-3.66 c -0.12649,-1.496 -0.22991,-8.672 -0.22991,-15.946 v -13.224 l 2.56655,-0.749 c 1.41164,-0.413 2.65173,-0.665 2.75585,-0.56 0.10402,0.104 0.2406,7.455 0.30359,16.337 l 0.11461,16.15 -0.9378,0.355 c -0.51577,0.197 -1.70385,0.357 -2.64034,0.357 h -1.70253 z m -7.1607,-33.544 c -0.14575,-0.236 -0.0454,-0.649 0.22377,-0.918 0.55336,-0.553 5.27149,-1.815 7.95154,-2.127 1.62835,-0.189 1.72189,-0.161 1.11218,0.332 -0.773,0.626 -6.28207,2.684 -7.91193,2.956 -0.66969,0.112 -1.2157,0.02 -1.37556,-0.243 z m 12.77692,-4.461 c 0.3797,-0.287 0.93972,-0.517 1.24452,-0.511 0.4432,0 0.41598,0.116 -0.13587,0.533 -0.3796,0.287 -0.93972,0.517 -1.24452,0.511 -0.4432,0 -0.41588,-0.116 0.13587,-0.533 z m 42.60617,52.587 c 6.5149,-1.111 7.7109,-1.408 7.5663,-1.879 -0.095,-0.308 -0.3335,-2.294 -0.5314,-4.414 -0.3364,-3.604 -0.036,-10.884 0.5449,-13.198 0.209,-0.832 0.1966,-0.83 -6.9765,0.964 l -7.1858,1.798 -0.6428,1.455 c -1.1675,2.645 -2.1129,8.375 -2.1129,12.809 0,4.096 0.01,4.128 0.8001,3.957 0.44,-0.09 4.2821,-0.765 8.5381,-1.492 z m 129.96557,0.139 c -1.2462,-1.522 -4.1979,-5.984 -5.3211,-8.045 -0.6843,-1.255 -1.5386,-1.515 -1.2411,-0.377 0.4327,1.654 3.3918,6.284 5.1437,8.047 2.2436,2.258 3.1583,2.5 1.4185,0.375 z m -301.19718,-8.601 c 28.73423,-7.181 55.00614,-13.67 72.10859,-17.809 14.21123,-3.441 29.0093,-7.192 29.22802,-7.411 0.10282,-0.103 0.0423,-1.835 -0.13516,-3.851 l -0.32204,-3.664 -0.98135,3.103 -0.98134,3.105 -2.9143,0.9 c -2.50164,0.773 -15.11033,3.984 -51.80709,13.196 -4.20478,1.055 -11.64539,2.963 -16.53467,4.24 -4.88928,1.278 -11.92983,3.103 -15.64565,4.056 -15.85954,4.07 -38.92847,10.206 -40.00315,10.641 -2.55043,1.035 2.65162,-0.175 27.98814,-6.506 z m 285.90098,4.442 -0.7204,-2.469 -1.8167,-0.216 c -0.9991,-0.119 -5.0968,-0.167 -9.106,-0.108 l -7.2895,0.107 2.1335,1.298 c 3.4627,2.106 6.106,2.74 15.1123,3.623 0.6845,0.07 1.5062,0.147 1.8259,0.178 0.5231,0.05 0.5092,-0.19 -0.1391,-2.413 z m -93.29147,0.344 c 5.6485,-0.969 10.3119,-1.806 10.3631,-1.862 0.051,-0.06 -0.1343,-1.141 -0.4122,-2.412 -0.7811,-3.573 -0.9708,-11.001 -0.3768,-14.757 0.2783,-1.76 0.4734,-3.241 0.4335,-3.291 -0.187,-0.234 -20.6447,4.978 -20.8515,5.313 -0.5344,0.864 -1.185,7.54 -1.1717,12.024 0.016,5.449 0.2356,6.758 1.1301,6.75 0.3386,0 5.237,-0.798 10.8855,-1.765 z m 152.48967,0.373 c 3.0681,-0.784 7.0519,-2.691 9.6762,-4.632 1.8805,-1.391 6.2449,-5.86 6.2449,-6.395 0,-0.171 -1.5601,-0.411 -3.467,-0.536 -1.9068,-0.124 -4.0569,-0.36 -4.7779,-0.524 -1.0334,-0.233 -1.5474,-0.152 -2.4285,0.383 -0.6148,0.374 -2.345,1.105 -3.8451,1.625 -2.3666,0.82 -3.3153,0.948 -7.1722,0.966 -4.1819,0.02 -4.566,-0.04 -6.4956,-0.986 -6.4197,-3.153 -9.5545,-10.556 -7.4306,-17.549 1.1868,-3.907 3.4699,-6.615 7.7529,-9.195 6.8705,-4.138 14.2953,-3.357 19.7022,2.072 1.2224,1.227 1.2457,1.234 5.2638,1.449 3.7297,0.199 4.0184,0.169 3.8053,-0.4 -1.4526,-3.879 -7.3902,-10.15 -11.7526,-12.413 -4.996,-2.592 -7.1626,-3.138 -12.4455,-3.138 -3.8348,0 -5.0771,0.141 -7.2894,0.827 -5.9829,1.852 -10.7894,5.862 -13.6358,11.373 -2.0544,3.978 -2.7929,7.044 -2.7994,11.624 -0.016,11.387 7.2168,21.718 17.5019,24.997 3.2593,1.04 3.3359,1.052 7.3215,1.097 2.4975,0.03 4.4033,-0.167 6.2709,-0.645 z m -367.1413,-2.31 c 2.49902,-0.671 13.1043,-3.387 23.56736,-6.037 10.46306,-2.649 21.74397,-5.526 25.06871,-6.392 3.32463,-0.866 8.52506,-2.221 11.55638,-3.009 9.69349,-2.522 43.34029,-11.33 49.78171,-13.031 10.43212,-2.756 9.91907,-2.56 10.58946,-4.035 0.32557,-0.717 1.01441,-1.942 1.53078,-2.724 0.51648,-0.783 1.0517,-1.783 1.18938,-2.223 0.34503,-1.102 -0.18828,-1.056 -5.31514,0.459 -20.04617,5.923 -43.57211,12.594 -83.91151,23.792 -29.67758,8.24 -31.04295,8.682 -35.14653,11.375 -2.0787,1.365 -4.09552,3.012 -3.71098,3.031 0.14121,0 2.30146,-0.536 4.80038,-1.206 z m 416.1316,-0.56 c 0,-0.694 -0.2371,-0.71 -10.2683,-0.71 -8.4622,0 -10.3425,0.09 -10.6898,0.508 -0.6132,0.738 0.1916,0.8 11.2685,0.86 9.4703,0.05 9.6896,0.04 9.6896,-0.658 z m -169.3764,-3.008 c 0.7548,-0.186 0.7663,-0.286 0.5713,-4.936 -0.2571,-6.134 0.5101,-12.222 2.2307,-17.703 0.1473,-0.469 -1.8768,-0.07 -10.6401,2.121 l -10.8221,2.699 -0.3718,1.258 c -0.7389,2.499 -1.1122,5.965 -1.1122,10.324 0,3.887 0.4467,8.539 0.8886,9.254 0.1231,0.199 16.859,-2.423 19.2556,-3.017 z m 68.1931,-0.516 c 0.3007,-0.485 -4.2753,-0.7 -19.0039,-0.892 -7.8405,-0.1 -13.0413,-0.04 -12.6232,0.141 0.3911,0.173 4.9514,0.345 10.1341,0.382 7.8219,0.06 14.7717,0.273 20.3362,0.631 0.5262,0.03 1.0468,-0.08 1.1568,-0.262 z m -63.9425,-5.632 c 0.045,-5.933 0.5665,-9.637 2.1103,-14.996 0.8821,-3.063 0.8607,-3.958 -0.065,-2.694 -1.4878,2.034 -3.2829,10.516 -3.5824,16.928 -0.2333,4.993 -0.044,6.363 0.8781,6.362 0.5557,0 0.6196,-0.544 0.6582,-5.6 z m 10.4095,3.676 c 3.8343,-0.667 8.0914,-1.395 9.4605,-1.618 l 2.489,-0.404 0.02,-6.828 c 0.021,-7.137 0.666,-11.946 2.2439,-16.729 0.3646,-1.106 0.5644,-2.008 0.4441,-2.007 -0.1205,0 -1.8191,0.411 -3.7748,0.908 -9.3421,2.378 -14.2585,3.781 -14.6257,4.172 -0.6561,0.699 -1.9158,4.435 -2.8425,8.43 -1.0529,4.539 -1.6488,15.289 -0.8475,15.289 0.2539,0 3.5986,-0.546 7.4329,-1.213 z m 130.4639,-4.209 c 0.1014,-2.314 0.075,-2.4 -0.732,-2.4 -0.9663,0 -1.8458,-0.616 -2.1568,-1.511 -0.1975,-0.569 0.124,-0.623 3.6839,-0.623 h 3.9002 v -4.318 -4.318 l -3.2003,0.242 -3.2002,0.242 v -1.08 c 0,-0.96 -0.1167,-1.079 -1.0575,-1.079 h -1.0575 l -0.098,5.422 c -0.094,5.153 -0.1335,5.423 -0.8094,5.423 -0.6797,0 -0.7111,-0.238 -0.7111,-5.37 v -5.371 l -3.8611,-0.319 -3.8612,-0.319 0.2056,1.778 c 0.4413,3.814 -0.9965,8.955 -3.1562,11.283 l -0.8267,0.892 1.8384,0.221 c 1.0111,0.121 3.1343,0.222 4.7182,0.224 1.584,0 4.1174,0.108 5.6299,0.236 l 2.7497,0.232 -0.2243,1.196 c -0.2859,1.524 0,1.963 1.1772,1.827 0.9057,-0.105 0.9486,-0.208 1.0493,-2.51 z m -1.3838,-6.82 c -0.084,-0.08 -0.095,-0.884 -0.023,-1.778 0.1147,-1.443 0.2253,-1.625 0.9825,-1.625 0.6651,0 0.8531,0.19 0.8531,0.859 0,0.473 -0.2,0.94 -0.4445,1.039 -0.2444,0.101 0.058,0.192 0.6731,0.208 0.9516,0.02 1.5494,0.526 1.5494,1.301 0,0.196 -3.3932,0.193 -3.5901,0 z m -209.16157,2.136 c 4.4545,-10.798 12.3395,-18.638 21.9811,-21.855 3.1863,-1.063 7.7152,-1.819 10.8983,-1.819 1.2141,0 2.4515,-0.377 4.5185,-1.376 1.5657,-0.758 3.8177,-1.668 5.0047,-2.023 l 2.158,-0.647 v -14.318 -14.317 l -1.3092,-0.246 c -1.9182,-0.36 -12.8663,0.108 -17.1112,0.731 -11.807,1.733 -24.0845,5.883 -34.1741,11.554 -2.1007,1.181 -4.4474,2.69 -5.2148,3.354 l -1.3953,1.205 -0.2357,9.553 c -0.1296,5.254 -0.3554,15.66 -0.5018,23.124 l -0.2661,13.572 7.2524,-1.861 7.2522,-1.86 z m -7.6541,-6.517 c -0.823,-1.578 -2.3631,-19.679 -2.3665,-27.813 l -9e-4,-2.3 3.5559,-2.572 c 6.4897,-4.692 8.9573,-5.591 10.9822,-3.997 1.9418,1.527 2.0543,2.135 2.6012,14.053 0.5399,11.769 0.4571,13.012 -0.9895,14.852 -0.8421,1.07 -9.028,6.73 -11.1716,7.724 -1.7795,0.825 -2.2036,0.833 -2.6108,0.05 z m 4.7443,-4.387 c 2.1513,-1.575 4.4207,-3.353 5.0432,-3.951 2.0411,-1.964 2.0604,-2.13 1.6202,-14.011 -0.2341,-6.318 -0.5603,-11.079 -0.7881,-11.505 -0.5958,-1.114 -1.4093,-0.897 -4.8432,1.287 -1.741,1.108 -4.0056,2.48 -5.0324,3.049 -1.3698,0.76 -1.865,1.242 -1.8601,1.81 0.095,10.899 1.1021,26.208 1.7232,26.19 0.1242,0 1.986,-1.295 4.1372,-2.869 z m -3.8784,1.152 c -0.1065,-0.173 -0.3578,-5.176 -0.5584,-11.118 -0.2005,-5.943 -0.4532,-11.477 -0.5615,-12.301 l -0.1967,-1.496 2.189,-1.105 c 1.2039,-0.607 2.2553,-1.039 2.3364,-0.957 0.1413,0.141 0.7473,14.777 0.8854,21.386 0.064,3.039 0.026,3.206 -0.8693,3.92 -1.5641,1.247 -3.0203,2.001 -3.2249,1.671 z m 5.1005,-4.766 c -0.012,-0.635 -0.2232,-6.114 -0.4684,-12.174 -0.5057,-12.495 -0.7482,-11.25 2.5288,-12.987 1.2843,-0.682 1.6296,-0.746 1.8753,-0.349 0.7234,1.171 1.3506,20.99 0.7244,22.886 -0.4008,1.215 -3.2789,3.78 -4.2408,3.78 -0.2182,0 -0.4069,-0.52 -0.4193,-1.156 z m -11.6568,-9.601 c -0.05,-9.937 0,-10.934 0.5306,-10.934 0.5344,0 0.5613,0.692 0.3092,7.913 -0.4835,13.843 -0.7799,14.91 -0.8398,3.021 z m 31.0424,-5.406 c -0.8726,-0.872 -0.8728,-0.874 -0.8728,-8.534 0,-7.327 0.032,-7.693 0.7527,-8.414 0.614,-0.614 1.0475,-0.72 2.3512,-0.572 0.9706,0.109 1.8969,0.478 2.3586,0.939 0.7166,0.717 0.7665,1.161 0.8708,7.751 0.061,3.845 0.015,7.372 -0.1015,7.838 -0.2317,0.923 -2.0345,1.865 -3.5696,1.865 -0.5042,0 -1.3094,-0.392 -1.7894,-0.873 z m 2.0762,-8.105 c -0.089,-3.569 -0.2154,-6.65 -0.2822,-6.845 -0.066,-0.196 -0.1342,2.724 -0.1497,6.489 -0.015,3.765 0.1116,6.845 0.2823,6.845 0.1712,0 0.2383,-2.909 0.1496,-6.489 z m 10.6645,8.48 c -0.7634,-0.35 -1.2164,-0.856 -1.3632,-1.524 -0.1209,-0.551 -0.2965,-1.239 -0.3901,-1.531 -0.094,-0.293 -0.057,-3.325 0.084,-6.738 0.3282,-8.03 0.1892,-7.843 5.8429,-7.843 3.9449,0 5.0719,0.264 5.9375,1.391 0.6219,0.81 0.632,14.946 0.011,15.786 -0.6422,0.87 -8.4532,1.224 -10.1217,0.459 z m 4.9858,-3.502 c -0.1055,-0.538 -0.3332,-0.979 -0.506,-0.979 -0.3678,0 -0.4276,1.902 -0.072,2.259 0.4428,0.443 0.772,-0.287 0.5771,-1.28 z m -2.6651,0 c -0.4909,-1.472 -1.0013,-2.055 -0.9949,-1.138 0.01,1.244 0.4238,2.293 0.9071,2.293 0.3762,0 0.3942,-0.237 0.088,-1.155 z m 5.4008,-0.09 c 0,-1.287 -0.4729,-1.666 -0.8509,-0.681 -0.383,0.998 -0.23,1.926 0.3175,1.926 0.3725,0 0.5334,-0.375 0.5334,-1.245 z m 0,-4.977 c 0,-0.685 -0.16,-1.245 -0.3556,-1.245 -0.1955,0 -0.3556,0.56 -0.3556,1.245 0,0.685 0.1601,1.244 0.3556,1.244 0.1956,0 0.3556,-0.559 0.3556,-1.244 z m -2.489,0.199 c 0,-0.38 -0.1601,-0.79 -0.3556,-0.911 -0.2017,-0.124 -0.3556,0.175 -0.3556,0.691 0,0.5 0.1599,0.909 0.3556,0.909 0.1955,0 0.3556,-0.31 0.3556,-0.689 z m -2.8448,-0.555 c 0,-0.293 -0.1599,-0.533 -0.3555,-0.533 -0.1956,0 -0.3556,0.24 -0.3556,0.533 0,0.294 0.16,0.534 0.3556,0.534 0.1956,0 0.3555,-0.24 0.3555,-0.534 z m 5.3338,-4.445 c 0,-1.027 -0.1482,-1.422 -0.5334,-1.422 -0.5607,0 -0.6677,0.707 -0.3092,2.044 0.3452,1.288 0.8426,0.921 0.8426,-0.622 z m -5.5575,-0.04 c 0.2391,-1.197 0.015,-1.874 -0.512,-1.548 -0.4196,0.259 -0.4375,2.651 -0.02,2.651 0.1711,0 0.4104,-0.496 0.5318,-1.103 z m 3.424,-0.54 c 0,-0.609 -0.1994,-0.846 -0.7111,-0.846 -0.5439,0 -0.7112,0.237 -0.7112,1.007 0,0.554 0.1053,1.113 0.2339,1.242 0.4047,0.405 1.1884,-0.521 1.1884,-1.403 z m -49.2699,6.484 c -0.323,-1.287 0.5379,-2.753 2.1551,-3.668 2.1338,-1.209 2.2232,-0.999 0.4042,0.945 -0.9069,0.97 -1.6488,2.081 -1.6488,2.469 0,1.067 -0.6601,1.252 -0.9105,0.254 z m 108.42627,41.513 c 0.1243,-0.908 0.226,-3.087 0.226,-4.844 0,-5.315 1.453,-13.529 3.212,-18.158 0.3755,-0.988 0.6292,-1.85 0.5639,-1.915 -0.5351,-0.535 -2.3765,4.778 -3.415,9.855 -0.9361,4.576 -1.4211,9.085 -1.4246,13.245 0,3.638 0.4525,4.627 0.8377,1.817 z m 39.5227,1.027 c -0.75,-1.872 -1.9782,-7.644 -2.3382,-10.988 -1.0751,-9.985 1.6209,-20.799 7.2554,-29.103 1.9207,-2.83 6.9881,-8.053 9.1764,-9.457 0.9637,-0.618 1.6972,-1.18 1.6299,-1.247 -0.068,-0.07 -0.6809,0.03 -1.3635,0.22 -0.6825,0.189 -6.3539,1.466 -12.6032,2.839 -12.9101,2.836 -14.7957,3.388 -19.0073,5.559 -8.6533,4.459 -14.9856,13.086 -17.9331,24.43 -1.3736,5.287 -1.4868,7.389 -0.5883,10.922 0.4202,1.652 1.0976,3.843 1.5055,4.87 l 0.7417,1.867 3.07,0.05 c 1.6886,0.03 6.4304,0.158 10.5374,0.289 4.107,0.133 10.3245,0.271 13.8169,0.307 5.9197,0.06 6.3328,0.02 6.1004,-0.557 z m -4.5844,-7.822 c -1.639,-5.577 -1.6102,-15.809 0.046,-16.358 0.3475,-0.115 0.4445,1.724 0.4445,8.416 0,4.71 -0.07,8.564 -0.1538,8.564 -0.085,0 -0.2362,-0.281 -0.3366,-0.622 z m 0.01,-20.604 c -0.4004,-0.401 -0.2439,-0.82 0.3059,-0.82 0.2935,0 0.5335,0.15 0.5335,0.334 0,0.449 -0.5553,0.769 -0.8394,0.486 z m -30.9218,28.215 c 0.036,-0.04 -0.2707,-1.103 -0.6812,-2.37 -0.8303,-2.564 -0.8725,-2.538 -1.0699,0.648 l -0.139,2.245 0.9125,-0.229 c 0.5019,-0.126 0.9419,-0.259 0.9776,-0.294 z m 88.5389,-1.709 c 2.6843,-1.005 5.1198,-3.474 6.1672,-6.254 0.6414,-1.702 0.7471,-2.589 0.6251,-5.248 -0.1245,-2.713 -0.3161,-3.532 -1.2572,-5.372 -2.8551,-5.581 -9.2362,-8.28 -14.6818,-6.212 -2.4351,0.925 -4.046,2.219 -5.4988,4.414 -4.4899,6.784 -1.8008,15.721 5.6548,18.794 2.1697,0.895 6.4271,0.837 8.9907,-0.122 z m -7.5637,-1.285 c -4.2532,-1.523 -6.6214,-4.884 -6.8448,-9.714 -0.1586,-3.427 0.7258,-5.673 3.1127,-7.906 3.2735,-3.062 7.336,-3.488 11.7625,-1.236 3.0696,1.564 4.7848,3.975 5.3861,7.571 0.3548,2.123 0.3291,2.787 -0.1745,4.511 -0.3249,1.112 -1.1161,2.709 -1.7585,3.552 -2.4036,3.151 -7.6062,4.611 -11.4835,3.222 z m 6.9682,-1.748 c 3.0153,-1.228 4.6027,-3.904 4.6148,-7.778 0.013,-4.214 -1.9998,-7.216 -5.7207,-8.528 -6.8399,-2.413 -12.9017,3.526 -10.8392,10.62 1.4902,5.126 6.9464,7.723 11.9451,5.686 z m -5.9085,-1.841 c -0.8049,-0.376 -1.925,-1.289 -2.489,-2.029 -0.8849,-1.159 -1.0425,-1.719 -1.1496,-4.073 -0.1018,-2.239 0.011,-2.993 0.6271,-4.2 2.4515,-4.806 10.6365,-3.323 12.4795,2.261 1.7301,5.244 -4.3714,10.425 -9.468,8.041 z m 5.6493,-1.764 c 1.1258,-0.665 2.3927,-3.025 2.3927,-4.458 0,-0.532 -0.3265,-1.609 -0.7255,-2.391 -1.8144,-3.556 -6.9471,-4.119 -8.8662,-0.971 -0.8552,1.403 -0.9708,4.461 -0.2232,5.907 1.3914,2.691 4.6722,3.537 7.4222,1.913 z m -4.3634,-2.553 c -1.3944,-1.395 -0.4827,-3.912 1.4167,-3.912 1.1241,0 2.4947,1.394 2.4947,2.537 0,0.944 -1.2652,2.085 -2.3113,2.085 -0.4889,0 -1.209,-0.319 -1.6001,-0.71 z m -177.61397,3.622 c 2.4445,-4.479 4.4296,-7.119 8.1784,-10.874 2.0814,-2.086 2.6408,-2.783 1.6002,-1.994 -2.0656,1.567 -5.8067,5.381 -7.7441,7.896 -1.7431,2.263 -4.7014,7.32 -4.7014,8.038 0,1.133 1.0076,-0.03 2.6669,-3.066 z m 8.8895,0.291 c 3.1292,-0.795 5.8959,-1.56 6.1482,-1.701 0.2522,-0.141 0.9135,-1.575 1.4692,-3.187 1.366,-3.961 3.686,-7.946 6.2023,-10.651 1.1469,-1.234 1.9582,-2.243 1.8027,-2.243 -0.1554,0 -2.0539,0.876 -4.2188,1.946 -6.9207,3.419 -12.7356,8.543 -16.7698,14.779 -1.7473,2.702 -1.8394,2.964 -0.9454,2.691 0.3423,-0.105 3.1826,-0.84 6.3116,-1.634 z m 20.8553,-5.35 c 5.3023,-1.347 9.6727,-2.495 9.7119,-2.552 0.039,-0.06 0.4371,-1.022 0.88417,-2.148 0.4472,-1.124 1.3542,-2.944 2.0156,-4.043 0.6613,-1.098 1.2025,-2.046 1.2025,-2.106 0,-0.06 -0.6801,0.266 -1.5113,0.726 -1.73157,0.957 -4.46017,1.434 -5.24447,0.915 -0.4408,-0.291 -0.2409,-0.648 1.1557,-2.066 1.6767,-1.703 1.6886,-1.732 1.6886,-4.103 0,-1.676 -0.1325,-2.387 -0.4445,-2.384 -0.8947,0 -5.8371,2.376 -7.9273,3.796 -4.5474,3.091 -9.5158,9.337 -11.6982,14.708 -0.834,2.053 -0.8421,2.142 -0.1739,1.931 0.3853,-0.123 5.0389,-1.326 10.3412,-2.674 z m 177.73417,-4.519 c 0,-0.734 -0.1031,-1.934 -0.2242,-2.667 -0.1834,-1.11 -0.3639,-1.334 -1.074,-1.334 -0.4695,0 -0.9525,0.258 -1.0734,0.573 -0.1965,0.512 -0.9647,0.545 -7.2532,0.315 l -7.0335,-0.258 0.5914,1.306 c 0.4652,1.026 0.7441,1.262 1.3083,1.111 0.3944,-0.107 3.1572,-0.09 6.1397,0.04 l 5.4226,0.227 v 1.012 c 0,0.962 0.079,1.012 1.6001,1.012 h 1.6002 z m -152.8225,-1.899 10.5641,-2.635 0.5588,-1.463 c 0.7711,-2.019 3.0926,-5.831 5.5524,-9.115 1.3189,-1.762 1.8715,-2.756 1.5318,-2.756 -0.9808,0 -12.038,2.543 -13.9211,3.202 -3.5514,1.243 -8.6278,4.89 -11.1324,7.998 -2.6145,3.245 -5.2111,7.941 -4.1869,7.571 0.2581,-0.09 5.223,-1.354 11.0333,-2.802 z m 15.5688,-5.035 c 2.5809,-4.646 7.0489,-9.68 11.6972,-13.182 5.751,-4.332 10.4018,-6.292 20.0411,-8.445 1.9068,-0.426 3.4669,-0.938 3.4669,-1.138 0,-0.236 -1.2104,-0.292 -3.4669,-0.16 -8.6378,0.505 -17.5511,4.849 -24.6242,12.003 -3.8354,3.879 -9.6531,12.433 -8.4557,12.433 0.2761,0 0.8798,-0.68 1.3416,-1.511 z m 12.4478,-2.281 c 4.4004,-1.076 8.1733,-2.009 8.3843,-2.071 0.211,-0.06 1.0487,-1.499 1.8615,-3.193 1.567,-3.266 4.466,-7.7 5.9377,-9.083 0.4866,-0.457 0.8845,-0.944 0.8845,-1.082 0,-0.373 -5.1222,1.162 -8.2051,2.458 -5.8495,2.458 -11.8126,7.054 -15.9102,12.262 -2.301,2.924 -2.4935,3.269 -1.6339,2.933 0.3744,-0.147 4.2809,-1.147 8.6812,-2.224 z m -35.9187,-3.14 c 8.108,-4.066 20.0041,-8.549 25.1145,-9.464 l 2.5302,-0.453 0.1802,-4.644 c 0.1946,-5.015 0.6635,-6.744 2.2909,-8.443 0.9062,-0.946 0.9157,-1.015 0.9589,-7.027 0.037,-5.118 -0.04,-6.095 -0.4897,-6.223 -2.5659,-0.731 -7.295,-1.058 -15.1123,-1.045 -7.3701,0.01 -9.7692,0.149 -14.0355,0.806 -2.8303,0.437 -5.1682,0.825 -5.1955,0.863 -0.1558,0.218 -0.4766,37.584 -0.3227,37.584 0.1024,0 1.9389,-0.879 4.081,-1.954 z m -2.9425,-16.821 c 0.1486,-7.056 0.3553,-9.055 0.9172,-8.867 0.6702,0.223 1.0323,2.749 0.8019,5.596 -0.2643,3.266 -1.2427,8.836 -1.5899,9.05 -0.1399,0.09 -0.198,-2.515 -0.1292,-5.779 z m 29.9717,-9.288 c 0,-5.24 0.1869,-5.059 -6.045,-5.889 -2.4446,-0.326 -5.2448,-0.774 -6.2227,-0.997 l -1.7779,-0.404 1.9557,-0.251 c 2.7537,-0.354 11.6926,0.05 13.0153,0.584 0.7721,0.314 1.1648,0.756 1.3087,1.476 0.4006,2.003 -0.9802,8.987 -1.8878,9.547 -0.2174,0.134 -0.3463,-1.378 -0.3463,-4.066 z m -29.8009,-3.967 c 0.07,-0.21 0.2795,-0.382 0.4652,-0.382 0.1858,0 0.3951,0.172 0.4652,0.382 0.071,0.211 -0.1392,0.383 -0.4652,0.383 -0.3259,0 -0.5353,-0.172 -0.4652,-0.383 z m 53.0941,28.421 c 3.9103,-6.671 9.7848,-12.004 15.8398,-14.38 1.361,-0.534 2.4209,-1.025 2.3552,-1.091 -0.066,-0.06 -0.9869,0.135 -2.0469,0.447 -6.1887,1.819 -11.8212,6.788 -16.4988,14.556 -1.1791,1.958 -1.4653,2.655 -1.0912,2.655 0.089,0 0.7373,-0.984 1.4419,-2.187 z m -144.54724,-10.659 c 21.93827,-6.552 25.61577,-7.791 29.33567,-9.889 6.3007,-3.551 19.8454,-8.782 28.0912,-10.848 8.464,-2.121 18.8693,-3.28 25.6908,-2.862 3.8104,0.234 4.0003,0.212 4.0003,-0.448 0,-0.635 -0.3568,-0.71 -4.3558,-0.924 -7.0967,-0.379 -22.1544,0.908 -29.2092,2.498 -1.3482,0.303 -6.3887,1.986 -11.2009,3.737 -11.4248,4.16 -28.17611,10.019 -41.32456,14.455 -5.7909,1.954 -11.31862,3.952 -12.28363,4.441 -2.79455,1.417 -7.04892,5.551 -4.83404,4.7 0.3423,-0.133 7.58283,-2.32 16.09016,-4.86 z m 22.22397,-9.11 c 0.1956,-0.194 1.5536,-0.711 3.0178,-1.147 1.4643,-0.436 5.1202,-1.906 8.1243,-3.265 3.0042,-1.359 5.6066,-2.423 5.7832,-2.364 0.1767,0.06 -1.3191,0.854 -3.3239,1.765 -2.0047,0.912 -5.2452,2.386 -7.2009,3.276 -3.3239,1.512 -7.2398,2.574 -6.4005,1.735 z m 106.05237,8.992 c 4.2211,-3.413 9.5261,-6.095 14.8461,-7.507 2.9523,-0.783 12.9957,-0.989 13.7051,-0.28 0.2649,0.265 0.7989,0.306 1.5294,0.12 0.6172,-0.158 1.8823,-0.39 2.8113,-0.517 0.929,-0.127 1.6891,-0.356 1.6891,-0.51 0,-0.923 -4.0586,-3.035 -7.1974,-3.747 -7.1245,-1.615 -21.5134,-0.638 -26.3085,1.786 -3.2346,1.635 -3.8304,2.928 -3.8304,8.311 0,2.356 0.08,4.285 0.1774,4.285 0.098,0 1.2576,-0.874 2.5779,-1.941 z m 110.3202,-10.129 c 0,-0.183 -0.16,-0.433 -0.3555,-0.554 -0.1956,-0.121 -0.3556,0.03 -0.3556,0.335 0,0.305 0.16,0.554 0.3556,0.554 0.1955,0 0.3555,-0.15 0.3555,-0.335 z m 3.2003,-1.771 c 0,-0.33 -2.4413,-0.629 -6.8505,-0.837 -3.4067,-0.162 -2.146,0.329 1.8764,0.73 4.7137,0.47 4.9741,0.476 4.9741,0.107 z m -41.2477,-2.71 c 9.651,-1.939 9.7948,-1.981 11.0231,-3.211 l 1.2445,-1.246 -0.7447,-0.608 c -2.2718,-1.856 -4.063,-6.035 -4.0469,-9.442 0.012,-2.613 0.5557,-4.677 1.9638,-7.463 l 1.2277,-2.429 v -10.906 -10.906 l 1.0909,-0.71 c 0.6,-0.391 1.3154,-1.135 1.5896,-1.653 0.4484,-0.847 0.4261,-1.034 -0.2202,-1.856 -0.9995,-1.271 -5.26,-3.283 -8.863,-4.186 -6.2295,-1.562 -14.3519,-0.164 -19.2903,3.319 -2.3105,1.63 -0.4865,3.112 3.8938,3.164 l 2.7733,0.03 -2.271,0.763 -2.2711,0.762 0.2324,6.228 c 0.1278,3.426 0.3859,11.748 0.5734,18.496 0.1874,6.747 0.4469,14.944 0.5764,18.217 0.2304,5.82 0.2522,5.947 0.9866,5.775 0.413,-0.101 5.1513,-1.06 10.5296,-2.14 z m -10.6702,-9.496 c 0,-0.245 -0.1554,-1.773 -0.3422,-3.397 -0.5319,-4.626 -1.174,-25.836 -0.8953,-29.571 0.2259,-3.027 0.2969,-3.277 0.7039,-2.489 1.1096,2.148 1.9586,11.051 1.9586,20.539 0,7.479 -0.5741,15.363 -1.1188,15.363 -0.1669,0 -0.3047,-0.201 -0.3062,-0.445 z m 18.0149,-20.263 c -0.1257,-1.617 -0.2298,-5.367 -0.2309,-8.335 v -5.394 l -1.1557,-0.358 c -0.6356,-0.197 -1.6738,-0.462 -2.3072,-0.589 -2.1462,-0.429 -1.6042,-0.887 1.0515,-0.887 3.904,0 4.1911,0.301 4.182,4.377 -0.01,3.155 -0.8906,13.708 -1.1712,13.989 -0.076,0.08 -0.2404,-1.186 -0.3663,-2.803 z m -5.9224,-18.646 c -2.5948,-0.319 -6.1853,-0.45 -9.8248,-0.36 -5.7379,0.141 -6.8876,-0.03 -6.8876,-1.042 0,-0.704 4.549,-2.804 7.7094,-3.56 3.758,-0.899 10.3027,-0.794 13.4478,0.215 2.9886,0.958 4.0006,1.458 5.487,2.709 l 1.1274,0.948 -0.7912,0.842 c -0.7066,0.753 -1.0789,0.838 -3.485,0.796 -1.4816,-0.03 -4.5339,-0.272 -6.783,-0.548 z m -65.9608,48.778 c 4.2324,-0.745 12.6787,-1.048 16.8903,-0.606 2.2819,0.24 3.4509,0.238 3.6025,0 0.1235,-0.198 0.4264,-2.627 0.6732,-5.394 0.5061,-5.681 0.3115,-6.546 -1.8139,-8.06 -3.8079,-2.711 -14.1931,-3.243 -20.0301,-1.025 -0.9728,0.37 -1.8194,0.622 -1.8814,0.559 -0.367,-0.367 1.7678,-2.618 3.2955,-3.476 2.2312,-1.253 6.7463,-2.438 9.2861,-2.438 3.7666,0 7.8701,2.216 9.966,5.383 1.1035,1.667 1.4616,1.562 0.6323,-0.184 -0.8273,-1.744 -3.3962,-4.017 -5.8014,-5.134 -4.6859,-2.175 -12.8627,-0.987 -16.3236,2.372 -2.129,2.066 -2.627,4.212 -2.8455,12.268 -0.1745,6.431 -0.1547,6.696 0.4839,6.506 0.3663,-0.11 2.1061,-0.454 3.8661,-0.764 z m -1.3941,-2.003 c 0.4685,-0.758 3.2084,-1.692 6.2575,-2.133 3.3825,-0.489 8.5164,-0.05 10.7207,0.915 1.0298,0.451 0.6571,0.496 -4.2685,0.524 -4.7084,0.03 -8.392,0.307 -11.9555,0.915 -0.6659,0.113 -0.9155,0.04 -0.7542,-0.221 z m 101.1834,-3.762 c 2.679,-0.851 5.9796,-4.135 6.8945,-6.86 0.8306,-2.473 0.8441,-6.021 0.032,-8.434 -1.4116,-4.196 -6.1617,-7.607 -10.6292,-7.634 -3.4843,-0.02 -5.6994,0.863 -8.1001,3.228 -2.7461,2.705 -3.6647,5.127 -3.4537,9.107 0.2695,5.081 3.125,9.078 7.6335,10.687 1.88,0.67 5.3543,0.628 7.6227,-0.09 z m -8.4178,-1.657 c -6.6494,-3.096 -8.0177,-12.731 -2.5433,-17.908 2.1842,-2.066 3.8791,-2.742 6.8239,-2.718 2.6211,0.02 5.1419,1.2 7.0299,3.29 2.1247,2.351 2.8513,4.122 3.0305,7.385 0.1388,2.528 0.047,3.141 -0.7158,4.801 -1.2034,2.617 -2.4604,3.998 -4.6224,5.076 -2.5255,1.258 -6.3927,1.29 -9.0028,0.07 z m 7.2619,-2.693 c 3.8584,-1.968 5.3446,-6.492 3.4615,-10.536 -1.422,-3.054 -4.956,-5.174 -7.6017,-4.561 -2.5923,0.601 -5.1005,2.894 -6.1108,5.587 -0.4644,1.239 -0.4884,4.167 -0.043,5.337 0.54,1.42 2.5798,3.505 4.1099,4.2 1.8797,0.854 4.4803,0.843 6.1847,-0.03 z m -13.983,2.459 c -2.3811,-3.234 -3.1508,-5.549 -3.1894,-9.591 -0.03,-3.12 0.058,-3.569 1.1447,-5.867 0.6473,-1.369 1.6073,-2.942 2.1334,-3.495 l 0.9566,-1.005 -1.0667,0.244 c -2.0531,0.471 -4.6952,1.863 -5.9885,3.156 -1.6343,1.634 -3.2235,4.75 -3.7696,7.392 -0.7298,3.531 0.484,7.537 2.9956,9.886 0.9339,0.874 2.2144,1.117 7.2062,1.365 l 1.1549,0.06 z m -8.8701,-9.655 c 0.4019,-2.248 3.5064,-6.286 4.2563,-5.536 0.3526,0.352 -3.2564,6.477 -3.8909,6.603 -0.4706,0.09 -0.5377,-0.103 -0.3654,-1.067 z m -112.0497,5.221 c 3.7301,-0.653 13.7115,-0.773 17.2558,-0.206 1.275,0.203 3.5801,0.692 5.1223,1.087 1.5424,0.395 2.8587,0.717 2.9252,0.717 0.066,0 0.1209,-1.346 0.1209,-2.99 0,-2.895 -0.034,-3.02 -1.081,-3.901 -1.9416,-1.633 -7.7279,-3.136 -13.8538,-3.598 -5.1983,-0.391 -14.4278,0.94 -17.4871,2.522 -2.2043,1.139 -2.4253,1.62 -2.4253,5.276 v 3.353 l 3.1113,-0.849 c 1.7113,-0.468 4.5516,-1.102 6.3117,-1.411 z m -7.8241,-1.442 c 0.1328,-0.969 0.524,-2.16 0.8696,-2.649 2.5785,-3.65 20.6306,-4.349 28.2241,-1.094 1.8903,0.81 2.1481,1.14 1.5397,1.972 -0.4358,0.596 -0.6068,0.588 -3.4555,-0.168 -2.2608,-0.6 -4.3705,-0.839 -8.5882,-0.973 -8.6904,-0.275 -14.6322,0.878 -17.3988,3.378 l -1.4322,1.293 z m -26.84527,-1.004 c 0,-1.833 0.1,-3.834 0.2222,-4.445 0.2202,-1.101 0.2086,-1.112 -1.2446,-1.112 h -1.4668 v 4.445 4.445 h 1.2447 1.2445 z m 36.58057,-8.268 c 1.2912,-0.258 1.3507,-0.47 0.446,-1.587 -0.6443,-0.796 -0.6947,-0.802 -1.6002,-0.209 -0.9808,0.643 -1.2848,2.019 -0.4459,2.019 0.2689,0 0.989,-0.101 1.6001,-0.223 z m 15.3345,-0.476 c 0,-0.943 -1.2877,-1.634 -1.9784,-1.06 -1.0498,0.871 -0.5048,1.671 1.1784,1.73 0.5678,0.02 0.8,-0.174 0.8,-0.67 z m -5.6289,-4.012 c -0.1326,-4.122 -0.3241,-4.782 -1.281,-4.415 -0.4614,0.177 -0.5573,0.919 -0.5573,4.314 v 4.1 h 0.9835 0.9835 z m -186.37417,208.075 c -16.88251,-0.451 -40.32781,-1.765 -40.85174,-2.289 -0.0937,-0.09 -0.0746,-0.267 0.0423,-0.384 0.71242,-0.712 70.88795,2.095 71.65974,2.866 0.25834,0.259 -18.32288,0.142 -30.85053,-0.193 z m -63.12802,-3.867 c -1.88789,-0.139 -2.63701,-0.309 -2.22727,-0.504 0.62644,-0.298 13.01157,0.309 13.358,0.656 0.23435,0.234 -7.29053,0.132 -11.13073,-0.152 z m -12.3566,-0.977 c 0.44007,-0.08 1.16015,-0.08 1.60013,0 0.44007,0.08 0.0796,0.154 -0.80002,0.154 -0.88004,0 -1.24008,-0.07 -0.80011,-0.154 z m 44.89243,-192.09 c 0,-0.924 6.3745,-4.988 13.14674,-8.381 4.89633,-2.454 10.84033,-4.646 13.63226,-5.029 1.83075,-0.251 4.86802,0.109 4.86802,0.578 0,0.172 -0.54863,0.223 -1.21912,0.114 -2.65203,-0.43 -7.20889,1.519 -19.04921,8.147 -6.74069,3.774 -11.37869,5.637 -11.37869,4.571 z m 35.91398,-5.304 c 0,-0.619 3.92457,-3.948 6.36644,-5.398 4.44165,-2.639 11.14,-4.954 15.85753,-5.481 2.09886,-0.235 2.18544,-0.209 5.33378,1.61 5.31998,3.075 6.78786,3.632 9.60076,3.644 4.4484,0.02 9.79025,-2.872 14.84574,-8.038 l 2.80493,-2.866 -2.0154,-1.081 c -1.952,-1.048 -5.80218,-4.313 -5.47308,-4.642 0.0897,-0.09 2.07961,0.777 4.423,1.926 4.92677,2.415 8.78592,3.393 11.89304,3.011 4.72025,-0.58 10.07298,-2.981 17.06253,-7.652 2.38391,-1.594 4.41625,-2.816 4.51634,-2.716 0.2661,0.266 -0.51839,1.623 -1.97549,3.417 -2.99826,3.691 -9.82432,8.027 -14.29741,9.082 -3.20368,0.755 -7.10688,0.682 -10.58644,-0.198 -1.61665,-0.409 -2.98797,-0.689 -3.04734,-0.622 -0.0595,0.07 -0.51013,0.921 -1.00171,1.899 -2.26376,4.503 -5.43659,7.779 -9.51608,9.825 -1.95916,0.983 -2.77188,1.175 -5.4992,1.3 -2.6117,0.121 -3.61784,0 -5.47117,-0.62 -2.96136,-1.001 -5.59202,-2.709 -7.86667,-5.109 l -1.83518,-1.935 -2.72541,0.97 c -1.49892,0.534 -6.5657,2.895 -11.25934,5.246 -8.91898,4.465 -10.13417,4.996 -10.13417,4.428 z m -4.26696,-6.813 c 0,-0.194 1.02025,-1.393 2.26729,-2.664 2.78729,-2.844 5.94087,-4.449 9.25986,-4.715 2.94222,-0.236 4.35446,0.423 1.53068,0.714 -2.58641,0.267 -5.22463,1.562 -9.28325,4.553 -3.42876,2.528 -3.77458,2.722 -3.77458,2.112 z m 24.92316,-14.862 c 4.57832,-9.094 14.94784,-15.01 26.31,-15.01 3.16245,0 8.50481,0.922 8.50481,1.469 0,0.16 -0.52001,0.175 -1.15562,0.03 -2.17698,-0.486 -7.46884,-0.193 -10.531,0.584 -6.80842,1.726 -15.49648,6.359 -19.76092,10.537 -1.39733,1.369 -3.06055,3.128 -3.69607,3.911 -1.14836,1.414 -1.14634,1.405 0.3288,-1.525 z m 35.17041,-12.861 c 0,-0.378 3.86016,-3.535 6.51672,-5.329 7.47932,-5.05 25.21228,-9.723 30.60008,-8.064 l 1.7361,0.536 2.6807,-2.85 c 5.7358,-6.097 12.7952,-9.604 19.4352,-9.653 3.1517,-0.02 4.9836,0.493 7.3159,2.062 2.0922,1.408 1.3746,1.628 5.6456,-1.726 8.4414,-6.632 20.6123,-10.994 32.93407,-11.807 5.8031,-0.383 11.0732,1.106 13.5254,3.821 0.7013,0.776 1.22,1.466 1.1527,1.534 -0.068,0.07 -1.3065,-0.466 -2.7536,-1.185 -2.4546,-1.217 -2.8902,-1.314 -6.4922,-1.437 -2.1237,-0.07 -5.1773,0.06 -6.7859,0.287 -8.12177,1.168 -20.75587,5.355 -27.63797,9.161 -2.7802,1.537 -8.84,5.661 -10.9342,7.441 -2.0821,1.77 -1.892,1.091 0.4445,-1.588 1.0756,-1.234 1.9557,-2.373 1.9557,-2.532 0,-0.665 -3.8242,-1.943 -6.2338,-2.081 -2.0224,-0.117 -3.0415,0.04 -5.3337,0.803 -5.308,1.773 -12.6717,6.593 -18.762,12.281 -1.5069,1.407 -2.7398,2.44 -2.7398,2.296 0,-0.144 0.4786,-1.04 1.0635,-1.991 l 1.0635,-1.729 h -3.0342 c -3.4767,0 -7.05836,0.665 -11.89382,2.208 -4.66672,1.488 -12.63177,4.814 -18.1356,7.572 -4.66591,2.338 -5.33288,2.584 -5.33288,1.97 z" id="path14" /></g></svg>